<?xml version="1.0" encoding="UTF-8" standalone="no"?>
<svg
   xmlns:dc="http://purl.org/dc/elements/1.1/"
   xmlns:cc="http://creativecommons.org/ns#"
   xmlns:rdf="http://www.w3.org/1999/02/22-rdf-syntax-ns#"
   xmlns:svg="http://www.w3.org/2000/svg"
   xmlns="http://www.w3.org/2000/svg"
   xmlns:sodipodi="http://sodipodi.sourceforge.net/DTD/sodipodi-0.dtd"
   xmlns:inkscape="http://www.inkscape.org/namespaces/inkscape"
   id="svg"
   version="1.1"
   width="402"
   height="1093"
   sodipodi:docname="image2vector-4.svg"
   inkscape:version="0.92.2 5c3e80d, 2017-08-06">
  <metadata
     id="metadata9">
    <rdf:RDF>
      <cc:Work
         rdf:about="">
        <dc:format>image/svg+xml</dc:format>
        <dc:type
           rdf:resource="http://purl.org/dc/dcmitype/StillImage" />
      </cc:Work>
    </rdf:RDF>
  </metadata>
  <defs
     id="defs7" />
  <sodipodi:namedview
     pagecolor="#ffffff"
     bordercolor="#666666"
     borderopacity="1"
     objecttolerance="10"
     gridtolerance="10"
     guidetolerance="10"
     inkscape:pageopacity="0"
     inkscape:pageshadow="2"
     inkscape:window-width="1302"
     inkscape:window-height="810"
     id="namedview5"
     showgrid="false"
     inkscape:zoom="4"
     inkscape:cx="350.19488"
     inkscape:cy="868.34091"
     inkscape:window-x="0"
     inkscape:window-y="0"
     inkscape:window-maximized="0"
     inkscape:current-layer="svg" />
  <g
     id="svgg">
    <path
       id="path0"
       d="M0.000 542.289 L 0.000 1084.577 176.550 1084.577 C 352.226 1084.577,353.103 1084.567,353.731 1082.587 C 354.557 1079.985,356.219 1080.025,356.219 1082.647 C 356.219 1084.408,356.746 1084.654,359.950 1084.388 C 364.419 1084.019,365.448 1081.129,367.324 1063.682 C 368.601 1051.807,369.507 1049.725,370.709 1055.908 C 371.365 1059.288,371.662 1056.899,372.105 1044.662 C 372.485 1034.168,373.085 1028.622,373.953 1027.576 C 374.804 1026.550,375.540 1020.217,376.137 1008.785 C 377.126 989.844,378.361 972.568,380.569 946.766 C 385.084 894.031,385.213 890.667,383.796 862.687 C 382.784 842.679,382.155 836.816,381.023 836.816 C 380.500 836.816,380.100 842.674,380.100 850.307 C 380.100 857.728,379.718 863.563,379.252 863.276 C 376.756 861.733,375.197 793.626,377.602 791.220 C 378.700 790.122,378.961 792.086,379.656 806.716 C 380.053 815.062,380.731 821.891,381.162 821.891 C 382.091 821.891,382.209 820.803,385.785 779.182 C 388.402 748.729,389.654 742.922,389.932 759.950 C 390.019 765.271,390.401 767.164,391.388 767.164 C 392.416 767.164,392.876 763.877,393.372 752.985 C 393.728 745.187,394.515 735.000,395.122 730.348 C 396.296 721.351,395.637 682.745,394.047 667.326 C 393.569 662.694,392.607 645.642,391.909 629.433 C 390.109 587.596,388.920 587.113,385.589 626.866 C 385.099 632.707,384.003 642.737,381.128 667.662 C 380.591 672.313,379.814 679.254,379.401 683.085 L 378.649 690.050 377.968 679.602 C 377.252 668.618,375.338 632.651,374.265 610.030 C 373.397 591.720,371.199 590.430,371.021 608.126 C 370.953 614.876,370.608 623.532,370.254 627.363 L 369.611 634.328 368.822 627.762 C 368.356 623.883,368.515 615.224,369.210 606.608 C 370.083 595.787,370.108 588.748,369.307 579.344 C 368.713 572.371,367.462 556.704,366.527 544.527 C 364.947 523.942,363.913 518.422,362.894 525.124 C 362.666 526.629,362.673 525.353,362.912 522.287 C 363.150 519.222,362.814 511.386,362.164 504.874 C 361.155 494.755,362.420 461.547,363.762 462.942 C 363.890 463.075,364.280 467.214,364.628 472.139 C 364.976 477.065,365.738 486.020,366.321 492.040 C 366.905 498.060,367.669 510.561,368.019 519.820 C 368.478 531.936,369.005 536.771,369.900 537.067 C 370.780 537.359,371.144 536.077,371.144 532.688 C 371.144 530.052,372.319 514.679,373.755 498.525 C 376.245 470.515,376.306 468.291,375.087 450.532 C 374.083 435.907,374.057 428.644,374.970 416.701 C 375.609 408.336,376.189 397.463,376.259 392.537 C 376.444 379.423,377.905 389.587,378.022 404.809 C 378.088 413.355,378.411 415.987,379.353 415.678 C 382.097 414.778,384.766 369.097,383.205 349.751 C 378.220 287.947,377.133 273.404,377.125 268.349 C 377.118 264.751,376.739 262.801,376.119 263.184 C 375.572 263.522,375.124 266.941,375.124 270.782 C 375.124 276.783,370.596 339.068,369.854 343.284 C 367.758 355.180,367.470 304.318,369.494 279.602 C 371.811 251.301,371.812 251.203,370.040 231.343 C 369.064 220.398,368.241 208.197,368.212 204.229 C 368.182 200.118,367.731 197.015,367.164 197.015 C 366.617 197.015,366.175 198.470,366.182 200.249 C 366.224 210.541,362.667 245.947,362.009 241.791 C 360.466 232.045,364.231 166.150,366.898 156.219 C 367.875 152.580,368.881 164.661,369.031 181.841 C 369.182 199.238,371.910 202.444,372.204 185.572 C 372.271 181.741,373.009 169.428,373.844 158.209 C 374.763 145.853,375.098 134.084,374.693 128.358 C 374.325 123.159,373.419 110.030,372.679 99.183 C 371.939 88.336,371.068 79.194,370.742 78.868 C 370.416 78.542,370.149 79.469,370.149 80.929 C 370.149 82.388,369.760 83.582,369.285 83.582 C 367.826 83.582,367.498 69.857,368.620 55.721 C 369.787 41.003,371.116 43.763,371.136 60.945 C 371.141 65.417,371.562 68.657,372.139 68.657 C 373.449 68.657,373.252 70.458,374.159 50.249 C 374.602 40.398,375.293 25.062,375.695 16.169 L 376.426 -0.000 369.308 -0.000 C 365.392 -0.000,362.189 0.265,362.189 0.589 C 362.189 4.117,357.072 78.496,356.753 79.602 C 356.108 81.838,357.089 14.484,357.814 6.716 L 358.441 0.000 179.220 0.000 L 0.000 0.000 0.000 542.289 M378.251 161.443 C 378.339 163.769,378.041 173.955,377.590 184.080 C 376.192 215.401,377.950 253.228,380.677 250.501 C 382.431 248.747,384.675 204.211,383.410 196.269 C 382.865 192.848,382.793 190.050,383.249 190.050 C 383.706 190.050,384.080 189.154,384.080 188.060 C 384.080 186.965,383.645 186.070,383.114 186.070 C 382.302 186.070,381.793 174.890,382.060 162.935 C 382.094 161.430,381.666 160.199,381.110 160.199 C 380.554 160.199,380.100 159.527,380.100 158.706 C 380.100 157.886,379.648 157.214,379.095 157.214 C 378.543 157.214,378.163 159.117,378.251 161.443 M389.692 196.229 C 388.671 200.042,388.924 202.186,390.299 201.360 C 391.263 200.781,391.282 200.935,390.384 202.048 C 389.685 202.915,388.167 217.262,386.549 238.308 C 383.619 276.429,383.815 285.500,388.836 344.198 C 390.293 361.242,391.931 355.957,394.051 327.363 C 394.599 319.975,395.716 304.975,396.533 294.030 C 397.676 278.723,397.785 271.373,397.002 262.189 C 396.443 255.622,395.033 239.279,393.870 225.871 C 392.706 212.463,391.707 200.076,391.648 198.344 C 391.514 194.362,390.489 193.254,389.692 196.229 M377.719 485.323 C 377.340 499.415,376.337 519.453,375.491 529.851 C 373.958 548.680,374.048 556.864,376.108 586.070 C 376.629 593.458,377.341 607.450,377.690 617.164 C 378.197 631.291,378.601 634.826,379.709 634.826 C 380.556 634.826,381.097 633.762,381.101 632.090 C 381.104 630.585,381.760 621.294,382.559 611.443 C 387.597 549.290,387.630 558.426,382.118 492.040 C 381.572 485.473,381.119 475.510,381.110 469.900 C 381.098 462.011,380.790 459.701,379.752 459.701 C 378.677 459.701,378.271 464.821,377.719 485.323 M390.630 855.970 C 388.039 872.570,388.737 963.784,391.448 962.886 C 392.047 962.688,392.819 958.980,393.164 954.646 C 395.547 924.691,396.241 910.668,395.747 902.454 C 392.797 853.434,392.065 846.779,390.630 855.970 M384.080 947.257 C 384.080 952.263,380.023 1001.351,378.159 1018.905 C 377.188 1028.049,378.094 1051.063,379.480 1052.448 C 379.821 1052.789,380.161 1049.075,380.237 1044.196 L 380.375 1035.323 381.232 1044.279 C 381.704 1049.204,382.500 1058.085,383.002 1064.014 C 383.964 1075.380,384.374 1076.720,386.301 1074.793 C 387.086 1074.009,387.747 1067.217,388.232 1054.959 C 388.638 1044.707,389.521 1032.960,390.195 1028.856 C 391.604 1020.276,391.612 1008.773,390.223 991.045 C 389.688 984.204,388.753 972.114,388.148 964.179 C 386.814 946.709,386.176 942.289,384.987 942.289 C 384.488 942.289,384.080 944.524,384.080 947.257 "
       stroke="none"
       fill="#000000"
       fill-rule="evenodd" />
  </g>
  <path
     style="fill:none;stroke:#000000;stroke-width:1px;stroke-linecap:butt;stroke-linejoin:miter;stroke-opacity:1"
     d="m 389.96939,200.27769 c 0,2.57716 0,2.81157 0,4.94975"
     id="path11"
     inkscape:connector-curvature="0" />
  <path
     style="stroke-width:0.35355338"
     d="m 390.09028,352.25651 c -0.21537,-0.97227 -0.47741,-2.32461 -0.58231,-3.0052 -0.45566,-2.95615 -3.30867,-39.03424 -4.13787,-52.32591 -0.55464,-8.89067 -0.56025,-30.79479 -0.0101,-39.4212 1.00896,-15.82042 3.02211,-40.04185 4.0549,-48.78686 0.27094,-2.29417 0.31658,-4.69187 0.12974,-6.81643 -0.22971,-2.61221 -0.17315,-3.67316 0.27868,-5.22742 0.31179,-1.07252 0.71375,-1.85928 0.89324,-1.74835 0.48013,0.29674 0.62896,1.53144 1.42773,11.84415 0.39913,5.15304 1.66337,20.26745 2.80943,33.58757 1.14606,13.32013 2.18976,26.4458 2.31935,29.16816 0.289,6.07137 -0.10752,13.66809 -2.14992,41.18897 -2.28044,30.72846 -3.17502,39.74191 -4.18935,42.21038 l -0.45196,1.09991 z m 0.98002,-151.00903 c 0,-0.29168 -0.1591,-0.432 -0.35355,-0.31182 -0.19445,0.12018 -0.35355,0.45715 -0.35355,0.74884 0,0.29168 0.1591,0.432 0.35355,0.31182 0.19445,-0.12018 0.35355,-0.45716 0.35355,-0.74884 z"
     id="path13"
     inkscape:connector-curvature="0" />
  <path
     style="stroke-width:0.35355338"
     d="m 390.09028,352.25651 c -0.6305,-2.84642 -0.71581,-3.62854 -1.83163,-16.79379 -3.07217,-36.24738 -3.85732,-53.03454 -3.23608,-69.1899 0.53997,-14.04198 2.08275,-35.11069 3.65822,-49.95759 0.4545,-4.28313 0.78255,-9.7787 0.80198,-13.43503 0.0265,-4.98267 0.14429,-6.39367 0.60511,-7.24784 l 0.57221,-1.06066 0.3359,0.88388 c 0.18474,0.48614 0.44515,2.31578 0.57869,4.06586 0.48548,6.36252 2.37818,29.05837 3.90666,46.84583 0.86053,10.0144 1.6704,20.35584 1.7997,22.98097 0.29411,5.97124 -0.15849,14.6873 -2.15716,41.54252 -2.28328,30.67934 -3.16744,39.54507 -4.19252,42.03963 l -0.44951,1.09389 z m 0.98002,-151.00903 c 0,-0.29168 -0.1591,-0.432 -0.35355,-0.31182 -0.19445,0.12018 -0.35355,0.45715 -0.35355,0.74884 0,0.29168 0.1591,0.432 0.35355,0.31182 0.19445,-0.12018 0.35355,-0.45716 0.35355,-0.74884 z"
     id="path15"
     inkscape:connector-curvature="0" />
  <path
     style="stroke-width:0.35355338"
     d="m 390.26179,353.31717 c -0.8639,-2.83516 -3.33652,-31.15469 -4.89277,-56.03821 -0.55619,-8.89309 -0.56187,-31.49795 -0.0101,-40.12831 0.73657,-11.52062 2.14532,-29.23736 3.23298,-40.65864 0.65647,-6.89352 1.01474,-12.59993 0.96557,-15.37957 -0.0623,-3.52086 0.0383,-4.62979 0.49472,-5.45407 0.53537,-0.96689 0.59612,-0.99005 0.9275,-0.35356 0.19503,0.37461 0.46427,2.19254 0.5983,4.03986 0.29778,4.10416 2.21214,27.04653 4.08593,48.96714 1.76203,20.61335 1.94116,24.81245 1.44785,33.94113 -0.44722,8.27592 -3.28258,46.97361 -4.10589,56.03821 -0.96791,10.65676 -2.13244,17.0334 -2.74411,15.02602 z m 0.63174,-151.85118 c 0.12018,-0.19446 0.05,-0.35355 -0.15591,-0.35355 -0.20594,0 -0.37442,0.15909 -0.37442,0.35355 0,0.19445 0.0702,0.35355 0.15591,0.35355 0.0857,0 0.25424,-0.1591 0.37442,-0.35355 z"
     id="path21"
     inkscape:connector-curvature="0" />
  <path
     style="stroke-width:0.35355338"
     d="m 390.24386,353.28637 c -1.33567,-4.43809 -4.89646,-50.6058 -5.38317,-69.79599 -0.38946,-15.35562 0.74396,-35.17865 4.06321,-71.06424 0.38671,-4.18077 0.66987,-9.43103 0.62926,-11.66726 -0.058,-3.19052 0.0495,-4.28861 0.49905,-5.10051 0.53562,-0.96735 0.59608,-0.99035 0.92939,-0.35356 0.19607,0.37461 0.54081,3.06759 0.76608,5.9844 0.22528,2.91682 1.43186,17.39483 2.6813,32.17336 3.63641,43.01182 3.54087,38.37996 1.40377,68.05903 -2.79294,38.78716 -3.85846,49.71268 -5.05714,51.85461 -0.29674,0.53024 -0.34772,0.52163 -0.53175,-0.0898 z m 0.64967,-151.82038 c 0.12018,-0.19446 0.05,-0.35355 -0.15591,-0.35355 -0.20594,0 -0.37442,0.15909 -0.37442,0.35355 0,0.19445 0.0702,0.35355 0.15591,0.35355 0.0857,0 0.25424,-0.1591 0.37442,-0.35355 z"
     id="path23"
     inkscape:connector-curvature="0" />
  <path
     style="stroke-width:0.35355338"
     d="m 390.26179,353.31717 c -1.15783,-3.79978 -4.40048,-43.43601 -5.2353,-63.99316 -0.71121,-17.51339 0.30477,-38.76629 3.42253,-71.59457 0.48939,-5.15304 0.94052,-11.99429 1.0025,-15.20279 0.12005,-6.21399 0.56164,-8.50335 1.41589,-7.34049 0.26403,0.3594 0.63035,2.85426 0.88251,6.01041 0.2371,2.96777 1.53509,18.44206 2.88441,34.38732 1.34932,15.94526 2.55117,31.53696 2.67078,34.64823 0.24888,6.47363 -0.0496,12.26486 -2.00431,38.89088 -2.27051,30.92747 -3.29639,41.20402 -4.37363,43.81203 -0.39895,0.96585 -0.47433,1.00915 -0.66538,0.38214 z m 0.63174,-151.85118 c 0.12018,-0.19446 0.05,-0.35355 -0.15591,-0.35355 -0.20594,0 -0.37442,0.15909 -0.37442,0.35355 0,0.19445 0.0702,0.35355 0.15591,0.35355 0.0857,0 0.25424,-0.1591 0.37442,-0.35355 z"
     id="path25"
     inkscape:connector-curvature="0" />
  <path
     style="stroke-width:0.25"
     d=""
     id="path27"
     inkscape:connector-curvature="0" />
  <path
     style="stroke-width:0.25"
     d="m 389.22888,347.19659 c -0.42019,-3.04454 -2.79119,-32.68466 -3.4947,-43.6875 -1.03877,-16.24624 -1.14953,-35.36415 -0.28172,-48.625 0.61433,-9.38735 1.83513,-24.96781 2.65425,-33.875 1.28363,-13.95821 1.2999,-14.24679 1.21514,-21.54742 -0.0147,-1.26671 0.64345,-4.173 1.03329,-4.56285 0.44283,-0.44282 0.78766,0.27737 1.02897,2.14901 0.13022,1.00994 0.84911,9.31751 1.59755,18.46126 0.74843,9.14375 1.98938,23.9375 2.75766,32.875 2.00552,23.3303 2.03963,26.8655 0.46927,48.625 -1.8819,26.07635 -3.13045,41.78352 -3.74285,47.08628 -0.20397,1.7662 -0.37086,3.42558 -0.37086,3.6875 0,0.40992 -0.1893,0.47622 -1.35968,0.47622 h -1.35969 z"
     id="path29"
     inkscape:connector-curvature="0" />
  <path
     style="fill:none;stroke:#000000;stroke-width:1px;stroke-linecap:butt;stroke-linejoin:miter;stroke-opacity:1"
     d="M 383.25,198.5 381,155 l -2.749,6.443"
     id="path39"
     inkscape:connector-curvature="0" />
  <path
     style="stroke-width:0.25"
     d="m 379.75609,249.33432 c -0.95434,-2.95648 -1.65796,-10.08527 -2.16652,-21.95023 -0.39712,-9.26489 -0.3247,-32.91134 0.13322,-43.5 0.21407,-4.95 0.43972,-12.31875 0.50144,-16.375 0.0617,-4.05625 0.1809,-7.88125 0.26484,-8.5 0.15634,-1.15253 0.51453,-1.83592 0.85274,-1.6269 0.10465,0.0647 0.42317,-0.44281 0.70781,-1.12775 0.28465,-0.68494 0.67943,-1.24535 0.87728,-1.24535 0.47784,0 0.55604,0.90229 1.18079,13.625 0.86757,17.66755 0.84037,17.2984 1.31289,17.82053 0.51692,0.57119 0.57756,2.70738 0.0933,3.28479 -0.26474,0.31563 -0.28606,1.12075 -0.10644,4.01968 0.30748,4.96242 0.0476,25.3858 -0.42779,33.625 -0.64087,11.1062 -1.47612,20.00926 -2.08586,22.23371 -0.31065,1.13328 -0.71266,1.03311 -1.13765,-0.28348 z m 0.96352,-92.03383 c -0.26857,-0.26857 -0.61696,0.55689 -0.6209,1.4711 -0.002,0.48813 0.13679,1.02903 0.30867,1.202 0.25027,0.25188 0.32759,0.0322 0.38832,-1.10335 0.0417,-0.77981 0.007,-1.4862 -0.0761,-1.56975 z"
     id="path41"
     inkscape:connector-curvature="0" />
  <path
     style="stroke-width:0.25"
     d="m 380.41297,158.75909 c 0,-0.61875 0.0488,-0.87187 0.10834,-0.5625 0.0596,0.30938 0.0596,0.81563 0,1.125 -0.0596,0.30938 -0.10834,0.0563 -0.10834,-0.5625 z"
     id="path43"
     inkscape:connector-curvature="0" />
  <path
     style="stroke-width:0.25"
     d="m 379.75609,249.33432 c -0.96778,-2.99812 -1.61945,-9.55802 -2.16815,-21.82523 -0.39272,-8.78011 -0.31989,-33.07967 0.13113,-43.75 0.21214,-5.01875 0.43865,-12.3875 0.50337,-16.375 0.1384,-8.52846 0.23239,-9.53897 0.92551,-9.95121 0.2763,-0.16433 0.7109,-0.77691 0.96577,-1.36129 0.25486,-0.58437 0.62317,-1.0625 0.81847,-1.0625 0.45585,0 0.57509,1.07778 0.92657,8.375 0.9733,20.20684 1.13571,22.59968 1.56622,23.07539 0.42465,0.46923 0.60612,2.78005 0.24656,3.13962 -0.0953,0.0953 -0.18676,7.00471 -0.20317,15.35416 -0.0167,8.5122 -0.16218,17.37723 -0.33112,20.18083 -1.02678,17.03922 -1.88152,25.02972 -2.70687,25.30483 -0.15946,0.0532 -0.45893,-0.43743 -0.67429,-1.1046 z m 0.89911,-91.26235 c 0.15057,-0.30917 0.19248,-0.64341 0.0931,-0.74276 -0.28182,-0.28182 -0.64748,0.47567 -0.62989,1.30488 0.009,0.4125 0.0715,0.58125 0.13945,0.375 0.068,-0.20625 0.24674,-0.62795 0.39731,-0.93712 z"
     id="path45"
     inkscape:connector-curvature="0" />
  <path
     style="stroke-width:0.25"
     d="m 379.88105,249.82159 c -0.96139,-2.40797 -1.76322,-10.11872 -2.29425,-22.0625 -0.39034,-8.77948 -0.31988,-33.31533 0.12744,-44.375 0.21133,-5.225 0.43798,-12.59375 0.50368,-16.375 0.13728,-7.90199 0.24839,-9.13093 0.86478,-9.565 0.24212,-0.1705 0.68369,-0.78812 0.98128,-1.3725 0.29758,-0.58437 0.69648,-1.0625 0.88643,-1.0625 0.50996,0 0.53125,0.28635 1.52373,20.5 0.45756,9.319 0.57107,10.50821 1.0553,11.05589 0.31537,0.3567 0.34729,0.8302 0.18537,2.75 -0.10757,1.27551 -0.1715,7.04411 -0.14206,12.81911 0.0821,16.10901 -0.77933,33.89133 -2.14365,44.25 -0.54328,4.12497 -0.93039,4.98455 -1.54805,3.4375 z m 0.95255,-92.25 c 0.006,-0.17187 -0.0881,-0.3125 -0.20956,-0.3125 -0.25359,0 -0.53029,0.88959 -0.50544,1.625 0.0132,0.39083 0.0919,0.33624 0.36031,-0.25 0.18888,-0.4125 0.34849,-0.89062 0.35469,-1.0625 z"
     id="path47"
     inkscape:connector-curvature="0" />
  <path
     style="stroke-width:0.25"
     d="m 379.89495,249.89416 c -0.6257,-1.37326 -1.36134,-6.56432 -1.79057,-12.63507 -0.88145,-12.46692 -1.0605,-36.7914 -0.39748,-54 0.20925,-5.43125 0.4407,-13.025 0.51433,-16.875 0.14692,-7.6829 0.22532,-8.49197 0.86664,-8.94361 0.23927,-0.16852 0.67852,-0.78451 0.97611,-1.36889 0.74796,-1.46879 1.21082,-1.38516 1.38363,0.25 0.15585,1.47471 0.47731,7.36567 1.02655,18.8125 0.42984,8.95819 0.5695,10.54889 0.98724,11.24372 0.37279,0.62006 0.0947,31.56169 -0.35502,39.50628 -0.41745,7.37389 -1.1935,17.08982 -1.6316,20.42695 -0.53251,4.05631 -0.94154,4.984 -1.57983,3.58312 z m 0.7079,-91.53105 c 0.13508,-0.35529 0.16914,-0.76969 0.0757,-0.9209 -0.18708,-0.30271 -0.53658,0.39456 -0.56609,1.12938 -0.0255,0.63516 0.20728,0.5362 0.4904,-0.20848 z"
     id="path49"
     inkscape:connector-curvature="0" />
  <path
     style="stroke-width:0.25"
     d=""
     id="path51"
     inkscape:connector-curvature="0" />
  <path
     style="stroke-width:0.25"
     d=""
     id="path53"
     inkscape:connector-curvature="0" />
  <path
     style="stroke-width:0.25"
     d="m 379.8869,249.82159 c -1.01319,-2.59297 -1.73725,-9.41758 -2.30097,-21.6875 -0.38934,-8.47453 -0.32422,-33.58954 0.11766,-45.375 0.20879,-5.56875 0.4419,-13.1565 0.51803,-16.86166 0.0761,-3.70517 0.20574,-7.02392 0.28804,-7.375 0.0823,-0.35109 0.40354,-0.91959 0.71388,-1.26334 0.31034,-0.34375 0.74874,-0.99062 0.97422,-1.4375 0.6205,-1.22977 1.0864,-1.04366 1.25163,0.5 0.15867,1.4823 0.51915,7.90849 0.90104,16.0625 0.44414,9.48317 0.74522,13.4497 1.04863,13.81529 0.35319,0.42556 0.31013,23.28743 -0.0632,33.55971 -0.37891,10.42564 -1.13599,21.17325 -1.88064,26.69771 -0.5358,3.97497 -0.96776,4.90175 -1.56832,3.36479 z m 0.76846,-91.6838 c 0.0661,-0.34579 0.0353,-0.6287 -0.0684,-0.6287 -0.22237,0 -0.49208,0.63591 -0.49208,1.1602 0,0.57488 0.42625,0.17067 0.56048,-0.5315 z"
     id="path55"
     inkscape:connector-curvature="0" />
  <path
     style="stroke-width:0.25"
     d="m 379.77831,249.58199 c -2.27765,-5.69376 -3.16516,-38.05489 -1.95948,-71.4479 0.52076,-14.42319 0.56383,-16.875 0.29644,-16.875 -0.17063,0 -0.18097,-0.19287 -0.0301,-0.5625 0.12625,-0.30937 0.30068,-1.10491 0.38764,-1.76785 0.0991,-0.75552 0.34556,-1.36197 0.66041,-1.625 0.27626,-0.23081 0.72045,-0.84152 0.98708,-1.35715 0.65313,-1.26307 1.15851,-1.21556 1.32952,0.125 0.16178,1.26819 0.54348,7.93116 0.89867,15.6875 0.41875,9.14412 0.77428,13.82636 1.10072,14.49605 0.43407,0.89051 0.0824,33.23697 -0.458,42.12895 -0.86663,14.25933 -1.73784,21.78669 -2.55249,22.05365 -0.15465,0.0507 -0.45182,-0.33441 -0.66037,-0.85575 z m 0.80891,-91.6979 c 0,-0.41403 -0.0417,-0.43552 -0.24234,-0.125 -0.13329,0.20625 -0.24235,0.6 -0.24235,0.875 0,0.41403 0.0417,0.43553 0.24235,0.125 0.13329,-0.20625 0.24234,-0.6 0.24234,-0.875 z"
     id="path57"
     inkscape:connector-curvature="0" />
  <path
     style="stroke-width:0.25"
     d=""
     id="path59"
     inkscape:connector-curvature="0" />
  <path
     style="stroke-width:0.25"
     d="m 379.77831,249.58199 c -0.86486,-2.162 -1.7041,-10.16776 -2.19597,-20.9479 -0.39733,-8.70807 -0.3389,-33.88454 0.10937,-47.125 0.21181,-6.25625 0.45265,-13.37187 0.5352,-15.8125 0.10177,-3.009 0.0662,-4.4375 -0.11062,-4.4375 -0.17169,0 -0.18233,-0.19203 -0.0312,-0.5625 0.12625,-0.30937 0.2981,-1.08768 0.3819,-1.72956 0.0838,-0.64188 0.32207,-1.30791 0.52951,-1.48007 0.20743,-0.17215 0.66261,-0.8001 1.0115,-1.39544 0.8125,-1.38642 1.26662,-1.3927 1.44174,-0.0199 0.16,1.25423 0.54328,7.87141 0.90141,15.5625 0.42041,9.02851 0.77271,13.70531 1.09228,14.5 0.36699,0.9126 0.10331,32.98335 -0.33195,40.375 -0.90049,15.29235 -1.83448,23.65392 -2.67284,23.92865 -0.15465,0.0507 -0.45182,-0.33441 -0.66037,-0.85575 z m 0.80891,-91.6979 c 0,-0.41403 -0.0417,-0.43552 -0.24234,-0.125 -0.13329,0.20625 -0.24235,0.6 -0.24235,0.875 0,0.41403 0.0417,0.43553 0.24235,0.125 0.13329,-0.20625 0.24234,-0.6 0.24234,-0.875 z"
     id="path61"
     inkscape:connector-curvature="0" />
  <path
     style="stroke-width:0.25"
     d="m 379.75894,249.53382 c -0.2192,-0.54783 -0.62053,-2.54939 -0.89185,-4.4479 -1.8652,-13.05131 -2.08909,-40.80095 -0.64236,-79.61661 0.0944,-2.53238 0.0564,-3.97008 -0.10742,-4.07135 -0.15251,-0.0943 -0.1712,-0.3769 -0.0469,-0.71022 0.1135,-0.30451 0.28347,-1.07883 0.3777,-1.72071 0.0942,-0.64188 0.34104,-1.30791 0.54848,-1.48007 0.20743,-0.17215 0.66261,-0.8001 1.0115,-1.39544 0.78318,-1.33639 1.24845,-1.3835 1.43126,-0.14493 0.17019,1.15305 0.53393,7.39615 1.04509,17.9375 0.40831,8.4203 0.69405,11.82303 1.05446,12.55673 0.28543,0.58107 -0.0658,34.01556 -0.42227,40.19327 -0.85083,14.74646 -1.83883,23.52869 -2.6779,23.80365 -0.15465,0.0507 -0.46054,-0.35608 -0.67974,-0.90392 z m 0.81454,-91.64973 -0.0138,-0.5 -0.21485,0.5 c -0.11817,0.275 -0.22104,0.66875 -0.2286,0.875 -0.0122,0.33333 0.0132,0.33333 0.2286,0 0.13329,-0.20625 0.23616,-0.6 0.2286,-0.875 z"
     id="path63"
     inkscape:connector-curvature="0" />
  <path
     style="stroke-width:0.25"
     d="m 380.10654,248.61896 c -2.58507,-7.14035 -3.21453,-41.71109 -1.53618,-84.36801 0.0784,-1.99128 0.0412,-3.60385 -0.0848,-3.68174 -0.32533,-0.20107 0.57449,-4.15012 0.94564,-4.15012 0.11891,0 0.51289,-0.50625 0.8755,-1.125 0.81004,-1.38223 1.29624,-1.44359 1.4856,-0.1875 0.17692,1.17348 0.54139,7.34385 1.04478,17.6875 0.42295,8.69073 0.70142,12.09524 1.04678,12.79772 0.29281,0.5956 -0.0577,34.25345 -0.42126,40.45228 -0.86663,14.7761 -1.83387,23.27832 -2.67978,23.55562 -0.15791,0.0518 -0.46222,-0.38958 -0.67624,-0.98075 z"
     id="path65"
     inkscape:connector-curvature="0" />
</svg>
