<?xml version="1.0" encoding="UTF-8" standalone="no"?>
<svg
   xmlns:dc="http://purl.org/dc/elements/1.1/"
   xmlns:cc="http://creativecommons.org/ns#"
   xmlns:rdf="http://www.w3.org/1999/02/22-rdf-syntax-ns#"
   xmlns:svg="http://www.w3.org/2000/svg"
   xmlns="http://www.w3.org/2000/svg"
   xmlns:sodipodi="http://sodipodi.sourceforge.net/DTD/sodipodi-0.dtd"
   xmlns:inkscape="http://www.inkscape.org/namespaces/inkscape"
   id="svg"
   version="1.1"
   width="397.50607"
   height="1075"
   sodipodi:docname="backcover.svg"
   inkscape:version="0.92.4 5da689c313, 2019-01-14">
  <metadata
     id="metadata9">
    <rdf:RDF>
      <cc:Work
         rdf:about="">
        <dc:format>image/svg+xml</dc:format>
        <dc:type
           rdf:resource="http://purl.org/dc/dcmitype/StillImage" />
        <dc:title></dc:title>
      </cc:Work>
    </rdf:RDF>
  </metadata>
  <defs
     id="defs7" />
  <sodipodi:namedview
     pagecolor="#ffffff"
     bordercolor="#666666"
     borderopacity="1"
     objecttolerance="10"
     gridtolerance="10"
     guidetolerance="10"
     inkscape:pageopacity="0"
     inkscape:pageshadow="2"
     inkscape:window-width="1918"
     inkscape:window-height="1078"
     id="namedview5"
     showgrid="false"
     inkscape:zoom="0.70710678"
     inkscape:cx="176.90231"
     inkscape:cy="460.06912"
     inkscape:window-x="1920"
     inkscape:window-y="0"
     inkscape:window-maximized="0"
     inkscape:current-layer="svg"
     fit-margin-top="0"
     fit-margin-left="0"
     fit-margin-right="0"
     fit-margin-bottom="0" />
  <g
     id="svgg"
     transform="translate(0,-2.577)">
    <path
       id="path0"
       d="m 0,542.289 v 542.288 h 176.55 c 175.676,0 176.553,-0.01 177.181,-1.99 0.826,-2.602 2.488,-2.562 2.488,0.06 0,1.761 0.527,2.007 3.731,1.741 4.469,-0.369 5.498,-3.259 7.374,-20.706 1.277,-11.875 2.183,-13.957 3.385,-7.774 0.656,3.38 0.953,0.991 1.396,-11.246 0.38,-10.494 0.98,-16.04 1.848,-17.086 0.851,-1.026 1.587,-7.359 2.184,-18.791 0.989,-18.941 2.224,-36.217 4.432,-62.019 4.515,-52.735 4.644,-56.099 3.227,-84.079 -1.012,-20.008 -1.641,-25.871 -2.773,-25.871 -0.523,0 -0.923,5.858 -0.923,13.491 0,7.421 -0.382,13.256 -0.848,12.969 -2.496,-1.543 -4.055,-69.65 -1.65,-72.056 1.098,-1.098 1.359,0.866 2.054,15.496 0.397,8.346 1.075,15.175 1.506,15.175 0.929,0 1.047,-1.088 4.623,-42.709 2.617,-30.453 3.869,-36.26 4.147,-19.232 0.087,5.321 0.469,7.214 1.456,7.214 1.028,0 1.488,-3.287 1.984,-14.179 0.356,-7.798 1.143,-17.985 1.75,-22.637 1.174,-8.997 0.515,-47.603 -1.075,-63.022 -0.478,-4.632 -1.44,-21.684 -2.138,-37.893 -1.8,-41.837 -2.989,-42.32 -6.32,-2.567 -0.49,5.841 -1.586,15.871 -4.461,40.796 -0.537,4.651 -1.314,11.592 -1.727,15.423 l -0.752,6.965 -0.681,-10.448 c -0.716,-10.984 -2.63,-46.951 -3.703,-69.572 -0.868,-18.31 -3.066,-19.6 -3.244,-1.904 -0.068,6.75 -0.413,15.406 -0.767,19.237 l -0.643,6.965 -0.789,-6.566 c -0.466,-3.879 -0.307,-12.538 0.388,-21.154 0.873,-10.821 0.898,-17.86 0.097,-27.264 -0.594,-6.973 -1.845,-22.64 -2.78,-34.817 -1.58,-20.585 -2.614,-26.105 -3.633,-19.403 -0.228,1.505 -0.221,0.229 0.018,-2.837 0.238,-3.065 -0.098,-10.901 -0.748,-17.413 -1.009,-10.119 0.256,-43.327 1.598,-41.932 0.128,0.133 0.518,4.272 0.866,9.197 0.348,4.926 1.11,13.881 1.693,19.901 0.584,6.02 1.348,18.521 1.698,27.78 0.459,12.116 0.986,16.951 1.881,17.247 0.88,0.292 1.244,-0.99 1.244,-4.379 0,-2.636 1.175,-18.009 2.611,-34.163 2.49,-28.01 2.551,-30.234 1.332,-47.993 -1.004,-14.625 -1.03,-21.888 -0.117,-33.831 0.639,-8.365 1.219,-19.238 1.289,-24.164 0.185,-13.114 1.646,-2.95 1.763,12.272 0.066,8.546 0.389,11.178 1.331,10.869 2.744,-0.9 5.413,-46.581 3.852,-65.927 -4.985,-61.804 -6.072,-76.347 -6.08,-81.402 -0.007,-3.598 -0.386,-5.548 -1.006,-5.165 -0.547,0.338 -0.995,3.757 -0.995,7.598 0,6.001 -4.528,68.286 -5.27,72.502 -2.096,11.896 -2.384,-38.966 -0.36,-63.682 2.317,-28.301 2.318,-28.399 0.546,-48.259 -0.976,-10.945 -1.799,-23.146 -1.828,-27.114 -0.03,-4.111 -0.481,-7.214 -1.048,-7.214 -0.547,0 -0.989,1.455 -0.982,3.234 0.042,10.292 -3.515,45.698 -4.173,41.542 -1.543,-9.746 2.222,-75.641 4.889,-85.572 0.977,-3.639 1.983,8.442 2.133,25.622 0.151,17.397 2.879,20.603 3.173,3.731 0.067,-3.831 0.805,-16.144 1.64,-27.363 0.919,-12.356 1.254,-24.125 0.849,-29.851 -0.368,-5.199 -1.274,-18.328 -2.014,-29.175 -0.74,-10.847 -1.611,-19.989 -1.937,-20.315 -0.326,-0.326 -0.593,0.601 -0.593,2.061 0,1.459 -0.389,2.653 -0.864,2.653 -1.459,0 -1.787,-13.725 -0.665,-27.861 1.167,-14.718 2.496,-11.958 2.516,5.224 0.005,4.472 0.426,7.712 1.003,7.712 1.31,0 1.113,1.801 2.02,-18.408 0.443,-9.851 1.134,-25.187 1.536,-34.08 L 376.426,0 h -7.118 c -3.916,0 -7.119,0.265 -7.119,0.589 0,3.528 -5.117,77.907 -5.436,79.013 -0.645,2.236 0.336,-65.118 1.061,-72.886 L 358.441,0 H 179.22 0 V 542.289 M 378.251,161.443 c 0.088,2.326 -0.21,12.512 -0.661,22.637 -1.398,31.321 0.36,69.148 3.087,66.421 1.754,-1.754 3.998,-46.29 2.733,-54.232 -0.545,-3.421 -0.617,-6.219 -0.161,-6.219 0.457,0 0.831,-0.896 0.831,-1.99 0,-1.095 -0.435,-1.99 -0.966,-1.99 -0.812,0 -1.321,-11.18 -1.054,-23.135 0.034,-1.505 -0.394,-2.736 -0.95,-2.736 -0.556,0 -1.01,-0.672 -1.01,-1.493 0,-0.82 -0.452,-1.492 -1.005,-1.492 -0.552,0 -0.932,1.903 -0.844,4.229 m 11.441,34.786 c -1.021,3.813 -0.768,5.957 0.607,5.131 0.964,-0.579 0.983,-0.425 0.085,0.688 -0.699,0.867 -2.217,15.214 -3.835,36.26 -2.93,38.121 -2.734,47.192 2.287,105.89 1.457,17.044 3.095,11.759 5.215,-16.835 0.548,-7.388 1.665,-22.388 2.482,-33.333 1.143,-15.307 1.252,-22.657 0.469,-31.841 -0.559,-6.567 -1.969,-22.91 -3.132,-36.318 -1.164,-13.408 -2.163,-25.795 -2.222,-27.527 -0.134,-3.982 -1.159,-5.09 -1.956,-2.115 m -11.973,289.094 c -0.379,14.092 -1.382,34.13 -2.228,44.528 -1.533,18.829 -1.443,27.013 0.617,56.219 0.521,7.388 1.233,21.38 1.582,31.094 0.507,14.127 0.911,17.662 2.019,17.662 0.847,0 1.388,-1.064 1.392,-2.736 0.003,-1.505 0.659,-10.796 1.458,-20.647 5.038,-62.153 5.071,-53.017 -0.441,-119.403 -0.546,-6.567 -0.999,-16.53 -1.008,-22.14 -0.012,-7.889 -0.32,-10.199 -1.358,-10.199 -1.075,0 -1.481,5.12 -2.033,25.622 M 390.63,855.97 c -2.591,16.6 -1.893,107.814 0.818,106.916 0.599,-0.198 1.371,-3.906 1.716,-8.24 2.383,-29.955 3.077,-43.978 2.583,-52.192 -2.95,-49.02 -3.682,-55.675 -5.117,-46.484 m -6.55,91.287 c 0,5.006 -4.057,54.094 -5.921,71.648 -0.971,9.144 -0.065,32.158 1.321,33.543 0.341,0.341 0.681,-3.373 0.757,-8.252 l 0.138,-8.873 0.857,8.956 c 0.472,4.925 1.268,13.806 1.77,19.735 0.962,11.366 1.372,12.706 3.299,10.779 0.785,-0.784 1.446,-7.576 1.931,-19.834 0.406,-10.252 1.289,-21.999 1.963,-26.103 1.409,-8.58 1.417,-20.083 0.028,-37.811 -0.535,-6.841 -1.47,-18.931 -2.075,-26.866 -1.334,-17.47 -1.972,-21.89 -3.161,-21.89 -0.499,0 -0.907,2.235 -0.907,4.968"
       inkscape:connector-curvature="0"
       style="fill:#000000;fill-rule:evenodd;stroke:none" />
  </g>
  <path
     style="fill:none;stroke:#000000;stroke-width:1px;stroke-linecap:butt;stroke-linejoin:miter;stroke-opacity:1"
     d="m 389.96939,190.70067 c 0,2.57716 0,2.81157 0,4.94975"
     id="path11"
     inkscape:connector-curvature="0" />
  <path
     style="stroke-width:0.35355338"
     d="m 390.09028,342.67949 c -0.21537,-0.97227 -0.47741,-2.32461 -0.58231,-3.0052 -0.45566,-2.95615 -3.30867,-39.03424 -4.13787,-52.32591 -0.55464,-8.89067 -0.56025,-30.79479 -0.0101,-39.4212 1.00896,-15.82042 3.02211,-40.04185 4.0549,-48.78686 0.27094,-2.29417 0.31658,-4.69187 0.12974,-6.81643 -0.22971,-2.61221 -0.17315,-3.67316 0.27868,-5.22742 0.31179,-1.07252 0.71375,-1.85928 0.89324,-1.74835 0.48013,0.29674 0.62896,1.53144 1.42773,11.84415 0.39913,5.15304 1.66337,20.26745 2.80943,33.58757 1.14606,13.32013 2.18976,26.4458 2.31935,29.16816 0.289,6.07137 -0.10752,13.66809 -2.14992,41.18897 -2.28044,30.72846 -3.17502,39.74191 -4.18935,42.21038 l -0.45196,1.09991 z m 0.98002,-151.00903 c 0,-0.29168 -0.1591,-0.432 -0.35355,-0.31182 -0.19445,0.12018 -0.35355,0.45715 -0.35355,0.74884 0,0.29168 0.1591,0.432 0.35355,0.31182 0.19445,-0.12018 0.35355,-0.45716 0.35355,-0.74884 z"
     id="path13"
     inkscape:connector-curvature="0" />
  <path
     style="stroke-width:0.35355338"
     d="m 390.09028,342.67949 c -0.6305,-2.84642 -0.71581,-3.62854 -1.83163,-16.79379 -3.07217,-36.24738 -3.85732,-53.03454 -3.23608,-69.1899 0.53997,-14.04198 2.08275,-35.11069 3.65822,-49.95759 0.4545,-4.28313 0.78255,-9.7787 0.80198,-13.43503 0.0265,-4.98267 0.14429,-6.39367 0.60511,-7.24784 l 0.57221,-1.06066 0.3359,0.88388 c 0.18474,0.48614 0.44515,2.31578 0.57869,4.06586 0.48548,6.36252 2.37818,29.05837 3.90666,46.84583 0.86053,10.0144 1.6704,20.35584 1.7997,22.98097 0.29411,5.97124 -0.15849,14.6873 -2.15716,41.54252 -2.28328,30.67934 -3.16744,39.54507 -4.19252,42.03963 l -0.44951,1.09389 z m 0.98002,-151.00903 c 0,-0.29168 -0.1591,-0.432 -0.35355,-0.31182 -0.19445,0.12018 -0.35355,0.45715 -0.35355,0.74884 0,0.29168 0.1591,0.432 0.35355,0.31182 0.19445,-0.12018 0.35355,-0.45716 0.35355,-0.74884 z"
     id="path15"
     inkscape:connector-curvature="0" />
  <path
     style="stroke-width:0.35355338"
     d="m 390.26179,343.74015 c -0.8639,-2.83516 -3.33652,-31.15469 -4.89277,-56.03821 -0.55619,-8.89309 -0.56187,-31.49795 -0.0101,-40.12831 0.73657,-11.52062 2.14532,-29.23736 3.23298,-40.65864 0.65647,-6.89352 1.01474,-12.59993 0.96557,-15.37957 -0.0623,-3.52086 0.0383,-4.62979 0.49472,-5.45407 0.53537,-0.96689 0.59612,-0.99005 0.9275,-0.35356 0.19503,0.37461 0.46427,2.19254 0.5983,4.03986 0.29778,4.10416 2.21214,27.04653 4.08593,48.96714 1.76203,20.61335 1.94116,24.81245 1.44785,33.94113 -0.44722,8.27592 -3.28258,46.97361 -4.10589,56.03821 -0.96791,10.65676 -2.13244,17.0334 -2.74411,15.02602 z m 0.63174,-151.85118 c 0.12018,-0.19446 0.05,-0.35355 -0.15591,-0.35355 -0.20594,0 -0.37442,0.15909 -0.37442,0.35355 0,0.19445 0.0702,0.35355 0.15591,0.35355 0.0857,0 0.25424,-0.1591 0.37442,-0.35355 z"
     id="path21"
     inkscape:connector-curvature="0" />
  <path
     style="stroke-width:0.35355338"
     d="m 390.24386,343.70935 c -1.33567,-4.43809 -4.89646,-50.6058 -5.38317,-69.79599 -0.38946,-15.35562 0.74396,-35.17865 4.06321,-71.06424 0.38671,-4.18077 0.66987,-9.43103 0.62926,-11.66726 -0.058,-3.19052 0.0495,-4.28861 0.49905,-5.10051 0.53562,-0.96735 0.59608,-0.99035 0.92939,-0.35356 0.19607,0.37461 0.54081,3.06759 0.76608,5.9844 0.22528,2.91682 1.43186,17.39483 2.6813,32.17336 3.63641,43.01182 3.54087,38.37996 1.40377,68.05903 -2.79294,38.78716 -3.85846,49.71268 -5.05714,51.85461 -0.29674,0.53024 -0.34772,0.52163 -0.53175,-0.0898 z m 0.64967,-151.82038 c 0.12018,-0.19446 0.05,-0.35355 -0.15591,-0.35355 -0.20594,0 -0.37442,0.15909 -0.37442,0.35355 0,0.19445 0.0702,0.35355 0.15591,0.35355 0.0857,0 0.25424,-0.1591 0.37442,-0.35355 z"
     id="path23"
     inkscape:connector-curvature="0" />
  <path
     style="stroke-width:0.35355338"
     d="m 390.26179,343.74015 c -1.15783,-3.79978 -4.40048,-43.43601 -5.2353,-63.99316 -0.71121,-17.51339 0.30477,-38.76629 3.42253,-71.59457 0.48939,-5.15304 0.94052,-11.99429 1.0025,-15.20279 0.12005,-6.21399 0.56164,-8.50335 1.41589,-7.34049 0.26403,0.3594 0.63035,2.85426 0.88251,6.01041 0.2371,2.96777 1.53509,18.44206 2.88441,34.38732 1.34932,15.94526 2.55117,31.53696 2.67078,34.64823 0.24888,6.47363 -0.0496,12.26486 -2.00431,38.89088 -2.27051,30.92747 -3.29639,41.20402 -4.37363,43.81203 -0.39895,0.96585 -0.47433,1.00915 -0.66538,0.38214 z m 0.63174,-151.85118 c 0.12018,-0.19446 0.05,-0.35355 -0.15591,-0.35355 -0.20594,0 -0.37442,0.15909 -0.37442,0.35355 0,0.19445 0.0702,0.35355 0.15591,0.35355 0.0857,0 0.25424,-0.1591 0.37442,-0.35355 z"
     id="path25"
     inkscape:connector-curvature="0" />
  <path
     style="stroke-width:0.25"
     d=""
     id="path27"
     inkscape:connector-curvature="0" />
  <path
     style="stroke-width:0.25"
     d="m 389.22888,337.61957 c -0.42019,-3.04454 -2.79119,-32.68466 -3.4947,-43.6875 -1.03877,-16.24624 -1.14953,-35.36415 -0.28172,-48.625 0.61433,-9.38735 1.83513,-24.96781 2.65425,-33.875 1.28363,-13.95821 1.2999,-14.24679 1.21514,-21.54742 -0.0147,-1.26671 0.64345,-4.173 1.03329,-4.56285 0.44283,-0.44282 0.78766,0.27737 1.02897,2.14901 0.13022,1.00994 0.84911,9.31751 1.59755,18.46126 0.74843,9.14375 1.98938,23.9375 2.75766,32.875 2.00552,23.3303 2.03963,26.8655 0.46927,48.625 -1.8819,26.07635 -3.13045,41.78352 -3.74285,47.08628 -0.20397,1.7662 -0.37086,3.42558 -0.37086,3.6875 0,0.40992 -0.1893,0.47622 -1.35968,0.47622 h -1.35969 z"
     id="path29"
     inkscape:connector-curvature="0" />
  <path
     style="fill:none;stroke:#000000;stroke-width:1px;stroke-linecap:butt;stroke-linejoin:miter;stroke-opacity:1"
     d="m 383.25,188.92298 -2.25,-43.5 -2.749,6.443"
     id="path39"
     inkscape:connector-curvature="0" />
  <path
     style="stroke-width:0.25"
     d="m 379.75609,239.7573 c -0.95434,-2.95648 -1.65796,-10.08527 -2.16652,-21.95023 -0.39712,-9.26489 -0.3247,-32.91134 0.13322,-43.5 0.21407,-4.95 0.43972,-12.31875 0.50144,-16.375 0.0617,-4.05625 0.1809,-7.88125 0.26484,-8.5 0.15634,-1.15253 0.51453,-1.83592 0.85274,-1.6269 0.10465,0.0647 0.42317,-0.44281 0.70781,-1.12775 0.28465,-0.68494 0.67943,-1.24535 0.87728,-1.24535 0.47784,0 0.55604,0.90229 1.18079,13.625 0.86757,17.66755 0.84037,17.2984 1.31289,17.82053 0.51692,0.57119 0.57756,2.70738 0.0933,3.28479 -0.26474,0.31563 -0.28606,1.12075 -0.10644,4.01968 0.30748,4.96242 0.0476,25.3858 -0.42779,33.625 -0.64087,11.1062 -1.47612,20.00926 -2.08586,22.23371 -0.31065,1.13328 -0.71266,1.03311 -1.13765,-0.28348 z m 0.96352,-92.03383 c -0.26857,-0.26857 -0.61696,0.55689 -0.6209,1.4711 -0.002,0.48813 0.13679,1.02903 0.30867,1.202 0.25027,0.25188 0.32759,0.0322 0.38832,-1.10335 0.0417,-0.77981 0.007,-1.4862 -0.0761,-1.56975 z"
     id="path41"
     inkscape:connector-curvature="0" />
  <path
     style="stroke-width:0.25"
     d="m 380.41297,149.18207 c 0,-0.61875 0.0488,-0.87187 0.10834,-0.5625 0.0596,0.30938 0.0596,0.81563 0,1.125 -0.0596,0.30938 -0.10834,0.0563 -0.10834,-0.5625 z"
     id="path43"
     inkscape:connector-curvature="0" />
  <path
     style="stroke-width:0.25"
     d="m 379.75609,239.7573 c -0.96778,-2.99812 -1.61945,-9.55802 -2.16815,-21.82523 -0.39272,-8.78011 -0.31989,-33.07967 0.13113,-43.75 0.21214,-5.01875 0.43865,-12.3875 0.50337,-16.375 0.1384,-8.52846 0.23239,-9.53897 0.92551,-9.95121 0.2763,-0.16433 0.7109,-0.77691 0.96577,-1.36129 0.25486,-0.58437 0.62317,-1.0625 0.81847,-1.0625 0.45585,0 0.57509,1.07778 0.92657,8.375 0.9733,20.20684 1.13571,22.59968 1.56622,23.07539 0.42465,0.46923 0.60612,2.78005 0.24656,3.13962 -0.0953,0.0953 -0.18676,7.00471 -0.20317,15.35416 -0.0167,8.5122 -0.16218,17.37723 -0.33112,20.18083 -1.02678,17.03922 -1.88152,25.02972 -2.70687,25.30483 -0.15946,0.0532 -0.45893,-0.43743 -0.67429,-1.1046 z m 0.89911,-91.26235 c 0.15057,-0.30917 0.19248,-0.64341 0.0931,-0.74276 -0.28182,-0.28182 -0.64748,0.47567 -0.62989,1.30488 0.009,0.4125 0.0715,0.58125 0.13945,0.375 0.068,-0.20625 0.24674,-0.62795 0.39731,-0.93712 z"
     id="path45"
     inkscape:connector-curvature="0" />
  <path
     style="stroke-width:0.25"
     d="m 379.88105,240.24457 c -0.96139,-2.40797 -1.76322,-10.11872 -2.29425,-22.0625 -0.39034,-8.77948 -0.31988,-33.31533 0.12744,-44.375 0.21133,-5.225 0.43798,-12.59375 0.50368,-16.375 0.13728,-7.90199 0.24839,-9.13093 0.86478,-9.565 0.24212,-0.1705 0.68369,-0.78812 0.98128,-1.3725 0.29758,-0.58437 0.69648,-1.0625 0.88643,-1.0625 0.50996,0 0.53125,0.28635 1.52373,20.5 0.45756,9.319 0.57107,10.50821 1.0553,11.05589 0.31537,0.3567 0.34729,0.8302 0.18537,2.75 -0.10757,1.27551 -0.1715,7.04411 -0.14206,12.81911 0.0821,16.10901 -0.77933,33.89133 -2.14365,44.25 -0.54328,4.12497 -0.93039,4.98455 -1.54805,3.4375 z m 0.95255,-92.25 c 0.006,-0.17187 -0.0881,-0.3125 -0.20956,-0.3125 -0.25359,0 -0.53029,0.88959 -0.50544,1.625 0.0132,0.39083 0.0919,0.33624 0.36031,-0.25 0.18888,-0.4125 0.34849,-0.89062 0.35469,-1.0625 z"
     id="path47"
     inkscape:connector-curvature="0" />
  <path
     style="stroke-width:0.25"
     d="m 379.89495,240.31714 c -0.6257,-1.37326 -1.36134,-6.56432 -1.79057,-12.63507 -0.88145,-12.46692 -1.0605,-36.7914 -0.39748,-54 0.20925,-5.43125 0.4407,-13.025 0.51433,-16.875 0.14692,-7.6829 0.22532,-8.49197 0.86664,-8.94361 0.23927,-0.16852 0.67852,-0.78451 0.97611,-1.36889 0.74796,-1.46879 1.21082,-1.38516 1.38363,0.25 0.15585,1.47471 0.47731,7.36567 1.02655,18.8125 0.42984,8.95819 0.5695,10.54889 0.98724,11.24372 0.37279,0.62006 0.0947,31.56169 -0.35502,39.50628 -0.41745,7.37389 -1.1935,17.08982 -1.6316,20.42695 -0.53251,4.05631 -0.94154,4.984 -1.57983,3.58312 z m 0.7079,-91.53105 c 0.13508,-0.35529 0.16914,-0.76969 0.0757,-0.9209 -0.18708,-0.30271 -0.53658,0.39456 -0.56609,1.12938 -0.0255,0.63516 0.20728,0.5362 0.4904,-0.20848 z"
     id="path49"
     inkscape:connector-curvature="0" />
  <path
     style="stroke-width:0.25"
     d=""
     id="path51"
     inkscape:connector-curvature="0" />
  <path
     style="stroke-width:0.25"
     d=""
     id="path53"
     inkscape:connector-curvature="0" />
  <path
     style="stroke-width:0.25"
     d="m 379.8869,240.24457 c -1.01319,-2.59297 -1.73725,-9.41758 -2.30097,-21.6875 -0.38934,-8.47453 -0.32422,-33.58954 0.11766,-45.375 0.20879,-5.56875 0.4419,-13.1565 0.51803,-16.86166 0.0761,-3.70517 0.20574,-7.02392 0.28804,-7.375 0.0823,-0.35109 0.40354,-0.91959 0.71388,-1.26334 0.31034,-0.34375 0.74874,-0.99062 0.97422,-1.4375 0.6205,-1.22977 1.0864,-1.04366 1.25163,0.5 0.15867,1.4823 0.51915,7.90849 0.90104,16.0625 0.44414,9.48317 0.74522,13.4497 1.04863,13.81529 0.35319,0.42556 0.31013,23.28743 -0.0632,33.55971 -0.37891,10.42564 -1.13599,21.17325 -1.88064,26.69771 -0.5358,3.97497 -0.96776,4.90175 -1.56832,3.36479 z m 0.76846,-91.6838 c 0.0661,-0.34579 0.0353,-0.6287 -0.0684,-0.6287 -0.22237,0 -0.49208,0.63591 -0.49208,1.1602 0,0.57488 0.42625,0.17067 0.56048,-0.5315 z"
     id="path55"
     inkscape:connector-curvature="0" />
  <path
     style="stroke-width:0.25"
     d="m 379.77831,240.00497 c -2.27765,-5.69376 -3.16516,-38.05489 -1.95948,-71.4479 0.52076,-14.42319 0.56383,-16.875 0.29644,-16.875 -0.17063,0 -0.18097,-0.19287 -0.0301,-0.5625 0.12625,-0.30937 0.30068,-1.10491 0.38764,-1.76785 0.0991,-0.75552 0.34556,-1.36197 0.66041,-1.625 0.27626,-0.23081 0.72045,-0.84152 0.98708,-1.35715 0.65313,-1.26307 1.15851,-1.21556 1.32952,0.125 0.16178,1.26819 0.54348,7.93116 0.89867,15.6875 0.41875,9.14412 0.77428,13.82636 1.10072,14.49605 0.43407,0.89051 0.0824,33.23697 -0.458,42.12895 -0.86663,14.25933 -1.73784,21.78669 -2.55249,22.05365 -0.15465,0.0507 -0.45182,-0.33441 -0.66037,-0.85575 z m 0.80891,-91.6979 c 0,-0.41403 -0.0417,-0.43552 -0.24234,-0.125 -0.13329,0.20625 -0.24235,0.6 -0.24235,0.875 0,0.41403 0.0417,0.43553 0.24235,0.125 0.13329,-0.20625 0.24234,-0.6 0.24234,-0.875 z"
     id="path57"
     inkscape:connector-curvature="0" />
  <path
     style="stroke-width:0.25"
     d=""
     id="path59"
     inkscape:connector-curvature="0" />
  <path
     style="stroke-width:0.25"
     d="m 379.77831,240.00497 c -0.86486,-2.162 -1.7041,-10.16776 -2.19597,-20.9479 -0.39733,-8.70807 -0.3389,-33.88454 0.10937,-47.125 0.21181,-6.25625 0.45265,-13.37187 0.5352,-15.8125 0.10177,-3.009 0.0662,-4.4375 -0.11062,-4.4375 -0.17169,0 -0.18233,-0.19203 -0.0312,-0.5625 0.12625,-0.30937 0.2981,-1.08768 0.3819,-1.72956 0.0838,-0.64188 0.32207,-1.30791 0.52951,-1.48007 0.20743,-0.17215 0.66261,-0.8001 1.0115,-1.39544 0.8125,-1.38642 1.26662,-1.3927 1.44174,-0.0199 0.16,1.25423 0.54328,7.87141 0.90141,15.5625 0.42041,9.02851 0.77271,13.70531 1.09228,14.5 0.36699,0.9126 0.10331,32.98335 -0.33195,40.375 -0.90049,15.29235 -1.83448,23.65392 -2.67284,23.92865 -0.15465,0.0507 -0.45182,-0.33441 -0.66037,-0.85575 z m 0.80891,-91.6979 c 0,-0.41403 -0.0417,-0.43552 -0.24234,-0.125 -0.13329,0.20625 -0.24235,0.6 -0.24235,0.875 0,0.41403 0.0417,0.43553 0.24235,0.125 0.13329,-0.20625 0.24234,-0.6 0.24234,-0.875 z"
     id="path61"
     inkscape:connector-curvature="0" />
  <path
     style="stroke-width:0.25"
     d="m 379.75894,239.9568 c -0.2192,-0.54783 -0.62053,-2.54939 -0.89185,-4.4479 -1.8652,-13.05131 -2.08909,-40.80095 -0.64236,-79.61661 0.0944,-2.53238 0.0564,-3.97008 -0.10742,-4.07135 -0.15251,-0.0943 -0.1712,-0.3769 -0.0469,-0.71022 0.1135,-0.30451 0.28347,-1.07883 0.3777,-1.72071 0.0942,-0.64188 0.34104,-1.30791 0.54848,-1.48007 0.20743,-0.17215 0.66261,-0.8001 1.0115,-1.39544 0.78318,-1.33639 1.24845,-1.3835 1.43126,-0.14493 0.17019,1.15305 0.53393,7.39615 1.04509,17.9375 0.40831,8.4203 0.69405,11.82303 1.05446,12.55673 0.28543,0.58107 -0.0658,34.01556 -0.42227,40.19327 -0.85083,14.74646 -1.83883,23.52869 -2.6779,23.80365 -0.15465,0.0507 -0.46054,-0.35608 -0.67974,-0.90392 z m 0.81454,-91.64973 -0.0138,-0.5 -0.21485,0.5 c -0.11817,0.275 -0.22104,0.66875 -0.2286,0.875 -0.0122,0.33333 0.0132,0.33333 0.2286,0 0.13329,-0.20625 0.23616,-0.6 0.2286,-0.875 z"
     id="path63"
     inkscape:connector-curvature="0" />
  <path
     style="stroke-width:0.25"
     d="m 380.10654,239.04194 c -2.58507,-7.14035 -3.21453,-41.71109 -1.53618,-84.36801 0.0784,-1.99128 0.0412,-3.60385 -0.0848,-3.68174 -0.32533,-0.20107 0.57449,-4.15012 0.94564,-4.15012 0.11891,0 0.51289,-0.50625 0.8755,-1.125 0.81004,-1.38223 1.29624,-1.44359 1.4856,-0.1875 0.17692,1.17348 0.54139,7.34385 1.04478,17.6875 0.42295,8.69073 0.70142,12.09524 1.04678,12.79772 0.29281,0.5956 -0.0577,34.25345 -0.42126,40.45228 -0.86663,14.7761 -1.83387,23.27832 -2.67978,23.55562 -0.15791,0.0518 -0.46222,-0.38958 -0.67624,-0.98075 z"
     id="path65"
     inkscape:connector-curvature="0" />
</svg>
