<?xml version="1.0" encoding="UTF-8" standalone="no"?>
<svg
   xmlns:dc="http://purl.org/dc/elements/1.1/"
   xmlns:cc="http://creativecommons.org/ns#"
   xmlns:rdf="http://www.w3.org/1999/02/22-rdf-syntax-ns#"
   xmlns:svg="http://www.w3.org/2000/svg"
   xmlns="http://www.w3.org/2000/svg"
   xmlns:sodipodi="http://sodipodi.sourceforge.net/DTD/sodipodi-0.dtd"
   xmlns:inkscape="http://www.inkscape.org/namespaces/inkscape"
   viewBox="0 0 1500 240"
   height="240"
   width="1500"
   id="svg95"
   version="1.1"
   sodipodi:docname="cover-splotch copy 2.svg"
   inkscape:export-filename="/Users/hudsd020/mygit/kami-no-kuni/dnd-5e/assets/samples/cover-splotch.png"
   inkscape:export-xdpi="96"
   inkscape:export-ydpi="96"
   inkscape:version="0.92.2 5c3e80d, 2017-08-06">
  <sodipodi:namedview
     pagecolor="#ffffff"
     bordercolor="#666666"
     borderopacity="1"
     objecttolerance="10"
     gridtolerance="10"
     guidetolerance="10"
     inkscape:pageopacity="0"
     inkscape:pageshadow="2"
     inkscape:window-width="1440"
     inkscape:window-height="811"
     id="namedview839"
     showgrid="false"
     inkscape:zoom="1"
     inkscape:cx="1257.0395"
     inkscape:cy="56"
     inkscape:window-x="0"
     inkscape:window-y="1"
     inkscape:window-maximized="1"
     inkscape:current-layer="svg95" />
  <metadata
     id="metadata101">
    <rdf:RDF>
      <cc:Work
         rdf:about="">
        <dc:format>image/svg+xml</dc:format>
        <dc:type
           rdf:resource="http://purl.org/dc/dcmitype/StillImage" />
        <dc:title />
      </cc:Work>
    </rdf:RDF>
  </metadata>
  <defs
     id="defs99" />
  <path
     style="fill:#ed1f24;stroke:#ed1f24;stroke-width:1px;stroke-linecap:butt;stroke-linejoin:miter;stroke-opacity:1"
     d="m 0,11 294,-1 213,15 -134,11 63,3 72,-3 230,16 -64,6 L 945.92126,81.379631 988,73 884,66 l 141,-11 133,10 -30,4 52,5 62,-7 -53,-6 141,-10 143,11 -123,10 67,7 -236,15 183,22 -75,7 132,12 -77,8 84,6 -220,18 88,9 -127,9 7,3 -352,27 -106,-8 60,-4 -109,-10 -80,8 81,7 -177,16 56,5 -113,11 H 0 Z"
     id="path842"
     inkscape:connector-curvature="0"
     sodipodi:nodetypes="cccccccccccccccccccccccccccccccccccccccccc" />
  <path
     style="fill:#ed1f24;stroke:#ed1f24;stroke-width:1px;stroke-linecap:butt;stroke-linejoin:miter;stroke-opacity:1"
     d="m 853,220 -121,8 124,11 122,-9 z"
     id="path844"
     inkscape:connector-curvature="0" />
  <path
     style="fill:#ed1f24;stroke:#ed1f24;stroke-width:1px;stroke-linecap:butt;stroke-linejoin:miter;stroke-opacity:1"
     d="m 1154,203 -169,16 135,10 143,-10 -82,-9 30,-4 z"
     id="path846"
     inkscape:connector-curvature="0"
     sodipodi:nodetypes="ccccccc" />
  <path
     style="fill:#ed1f24;stroke:#ed1f24;stroke-width:1px;stroke-linecap:butt;stroke-linejoin:miter;stroke-opacity:1"
     d="m 1391,91 c -124,5 -124,7 -124,7 l 125,9 108,-10 z"
     id="path848"
     inkscape:connector-curvature="0"
     sodipodi:nodetypes="ccccc" />
  <path
     style="fill:#ed1f24;stroke:#ed1f24;stroke-width:1px;stroke-linecap:butt;stroke-linejoin:miter;stroke-opacity:1"
     d="M 852,37 744,44 857,55 961,45 Z"
     id="path850"
     inkscape:connector-curvature="0"
     sodipodi:nodetypes="ccccc" />
  <path
     style="fill:#ed1f24;stroke:#ed1f24;stroke-width:1px;stroke-linecap:butt;stroke-linejoin:miter;stroke-opacity:1"
     d="M 697,12 539,24 697,37 853,25 Z"
     id="path852"
     inkscape:connector-curvature="0" />
  <path
     style="fill:#ed1f24;stroke:#ed1f24;stroke-width:1px;stroke-linecap:butt;stroke-linejoin:miter;stroke-opacity:1"
     d="m 441,1 -61,6 79,5 81,-7 -61,-4 z"
     id="path854"
     inkscape:connector-curvature="0" />
  <path
     style="fill:#ed1f24;fill-opacity:1"
     d="M 0.99921,125.2018 V 11.803598 l 144.75,-0.451217 144.75,-0.451216 92.5,6.382491 c 50.875,3.510371 96.775,6.705108 102,7.099418 8.69383,0.656088 4.34475,1.138661 -51.25,5.686704 -33.4125,2.733378 -60.75,5.281324 -60.75,5.662102 0,1.189016 6.61399,1.747462 35.27896,2.978747 22.20425,0.953768 34.24513,0.928725 60,-0.124789 17.72157,-0.724908 35.82104,-1.285893 40.22104,-1.246632 4.4,0.03926 44,2.596419 88,5.682575 44,3.086157 91.25,6.400768 105,7.365805 l 25,1.754611 -26,2.377627 c -14.3,1.307696 -26.39611,2.729315 -26.88025,3.159154 -1.25425,1.113575 2.84254,1.646587 29.88025,3.88756 28.92579,2.397463 219.07487,18.718352 232.5,19.955955 8.91076,0.821443 10.7095,0.634872 29,-3.007971 24.59912,-4.899303 24.46573,-4.866049 23.39464,-5.83238 -0.49205,-0.443932 -20.69464,-2.09961 -44.89464,-3.679286 -24.2,-1.579676 -43.325,-3.00197 -42.5,-3.160654 0.825,-0.158684 29.175,-2.454486 63,-5.101783 l 61.49999,-4.813267 36.5,2.782841 c 20.075,1.530563 47.525,3.620353 61,4.643979 l 24.5,1.861138 -9,1.260699 c -4.95,0.693384 -9.675,1.500056 -10.5,1.792604 -3.1484,1.116433 2.9129,2.072517 27.5,4.337747 l 25,2.303271 29,-3.198593 c 15.95,-1.759226 30.0776,-3.428758 31.3946,-3.710071 5.0364,-1.075736 -0.074,-2.21966 -19.3753,-4.336942 -10.9893,-1.205498 -20.0821,-2.293334 -20.2062,-2.417414 -0.1241,-0.12408 21.2422,-1.707645 47.4806,-3.519032 26.2385,-1.811387 50.5188,-3.546141 53.9563,-3.85501 l 6.25,-0.561579 v 15.599292 15.599292 l -3.25,0.502424 c -2.9119,0.450163 -51.8479,3.598266 -104.75,6.73868 -18.4659,1.096184 -24.283,2.097355 -18.8946,3.251909 1.317,0.282204 29.3946,3.691505 62.3946,7.576223 33,3.88472 61.0125,7.28731 62.25,7.56131 1.9574,0.43339 2.25,1.13198 2.25,5.37126 v 4.87308 l -10.008,0.71631 c -15.0768,1.07911 -14.1924,2.65569 2.258,4.02498 l 7.75,0.64509 v 15.82678 15.82678 l -3.75,0.56457 c -2.0625,0.31051 -24.45,2.19178 -49.75,4.18061 -25.3,1.98882 -46.6269,3.80992 -47.3931,4.04687 -0.7662,0.23696 -1.1161,0.70784 -0.7776,1.04641 0.3386,0.33858 16.8404,2.29038 36.6707,4.33734 19.8303,2.04696 36.2556,3.92229 36.5007,4.16739 0.2451,0.2451 -24.4048,2.14557 -54.7775,4.22325 -30.3728,2.07769 -55.8982,3.9969 -56.7232,4.26491 -1.2369,0.40182 -1.1595,0.73785 0.4411,1.91587 1.0677,0.78572 1.4409,1.42858 0.8295,1.42858 -1.1332,0 -191.40839,14.5368 -290.41284,22.18718 l -54.64226,4.22239 -46.85774,-3.45479 -46.85775,-3.45478 21,-1.30179 c 22.19603,-1.37593 25.5,-1.76605 25.5,-3.01094 0,-0.42605 -24.49187,-3.01897 -54.42639,-5.76206 l -54.42639,-4.98744 -39.99206,4.03111 c -21.99563,2.21712 -40.29974,4.3396 -40.67579,4.71664 -1.03313,1.03581 3.32367,1.54802 37.02063,4.35234 17.05,1.41893 31.39228,2.68414 31.87174,2.81159 0.47946,0.12744 -35.97054,3.51188 -81,7.52098 -45.02946,4.0091 -82.54674,7.53073 -83.37174,7.82584 -3.00558,1.07515 3.60006,2.13188 24,3.83936 11.275,0.94372 20.59338,1.79015 20.70752,1.88096 0.11413,0.0908 -21.93587,2.29839 -49,4.90572 l -49.20752,4.74062 -219.25,-0.0315 -219.25,-0.0315 z"
     id="path1540"
     inkscape:connector-curvature="0" />
  <path
     style="fill:#ed1f24;fill-opacity:1"
     d="m 420.49921,8.6913638 c -13.2,-0.9455012 -22.875,-2.009606 -21.5,-2.3646774 1.375,-0.3550714 12.25775,-1.5638323 24.18388,-2.6861354 26.00339,-2.4470362 46.5055,-2.5012767 79.81612,-0.2111621 l 24.5,1.6843821 -26.5,2.3926529 c -33.93335,3.0638011 -50.80282,3.3121161 -80.5,1.1849399 z"
     id="path1542"
     inkscape:connector-curvature="0" />
  <path
     style="fill:#ed1f24;fill-opacity:1"
     d="m 623.49921,30.053523 c -34.65,-2.918597 -65.025,-5.452111 -67.5,-5.630032 -2.475,-0.17792 28.35,-2.831953 68.5,-5.897851 l 73,-5.574361 68.53376,5.726473 c 37.69357,3.14956 69.64357,5.884163 71,6.076896 3.77918,0.536977 -134.49081,10.940701 -143.03376,10.76216 -4.125,-0.08621 -35.85,-2.544687 -70.5,-5.463285 z"
     id="path1544"
     inkscape:connector-curvature="0" />
  <path
     style="fill:#ed1f24;fill-opacity:1"
     d="m 805.49921,49.045413 c -23.65,-2.383359 -44.35,-4.415037 -46,-4.514838 -1.65,-0.0998 18.375,-1.619627 44.5,-3.377389 l 47.5,-3.195932 49,3.556649 c 26.95,1.956157 48.325,3.665339 47.5,3.798181 -7.55101,1.215872 -87.37645,8.262141 -92.63875,8.177313 -3.77369,-0.06083 -26.21125,-2.060625 -49.86125,-4.443984 z"
     id="path1546"
     inkscape:connector-curvature="0" />
  <path
     style="fill:#ed1f24;fill-opacity:1"
     d="m 799.49921,233.05001 c -25.85,-2.37826 -48.8,-4.41146 -51,-4.51823 -2.2,-0.10678 20.3,-1.85541 50,-3.88586 l 54,-3.69172 54,4.29742 c 29.7,2.36359 54.9,4.42139 56,4.5729 3.31817,0.45704 -101.45326,7.85502 -109,7.69656 -3.85,-0.0808 -28.15,-2.09282 -54,-4.47107 z"
     id="path1548"
     inkscape:connector-curvature="0" />
  <path
     style="fill:#ed1f24;fill-opacity:1"
     d="m 1053.9295,223.26913 c -29.8155,-2.24539 -54.06396,-4.22853 -53.8855,-4.40698 0.1785,-0.17846 35.3729,-3.60591 78.21,-7.61655 l 77.8855,-7.29208 19.1731,1.07324 c 10.5453,0.59028 19.4662,1.36921 19.8244,1.73095 0.3582,0.36174 -2.7572,0.97711 -6.9231,1.36749 -7.4496,0.69808 -9.7489,1.96234 -5.3244,2.92751 1.2375,0.26995 15.525,1.87325 31.75,3.56289 27.6131,2.87557 38.9874,4.74582 29.9018,4.91672 -1.9791,0.0372 -29.1039,1.86768 -60.2775,4.06768 -31.1735,2.2 -61.0543,3.94412 -66.4018,3.87582 -5.3474,-0.0683 -34.117,-1.96131 -63.9325,-4.20669 z"
     id="path1550"
     inkscape:connector-curvature="0" />
  <path
     style="fill:#ed1f24;fill-opacity:1"
     d="m 1309.6395,141.58818 v -16.01182 l 3.75,0.5261 c 2.0625,0.28936 24,2.32455 48.75,4.52265 24.75,2.1981 45.9,4.10739 47,4.24286 1.1,0.13547 -13.1875,1.80263 -31.75,3.70479 -18.5625,1.90216 -33.75,3.79106 -33.75,4.19755 0,1.16178 4.3615,1.61439 39,4.04713 17.875,1.25541 31.375,2.39809 30,2.5393 -4.3018,0.44178 -100.7403,8.24326 -101.8996,8.24326 -0.7547,0 -1.1004,-5.02994 -1.1004,-16.01182 z"
     id="path1552"
     inkscape:connector-curvature="0" />
  <path
     style="fill:#ed1f24;fill-opacity:1"
     d="M 1309.6395,69.187898 V 53.775796 l 3.8474,-0.650025 c 8.2554,-1.394737 26.883,-0.528254 83.6526,3.891191 32.45,2.526196 59.9,4.713624 61,4.860953 1.1,0.147329 -4.75,0.802438 -13,1.455798 -63.5616,5.033769 -95.069,7.672641 -95.4711,7.99608 -1.4655,1.178997 4.4229,2.146784 25.7392,4.230371 13.0525,1.275834 24.0946,2.641911 24.5378,3.035726 0.4433,0.393815 -5.1817,1.031313 -12.5,1.416661 -7.3182,0.385348 -26.3557,1.575166 -42.3055,2.644041 -15.9497,1.068874 -30.4622,1.943408 -32.25,1.943408 h -3.2504 z"
     id="path1554"
     inkscape:connector-curvature="0" />
  <path
     style="fill:#ed1f24;fill-opacity:1"
     d="m 1330.1395,101.64974 c -53.1427,-3.978222 -53.9023,-4.227957 -18.5,-6.082605 72.0495,-3.774519 75.9238,-3.802498 126.5,-0.913539 25.85,1.476576 46.5263,2.743571 45.9474,2.815544 -16.3937,2.038031 -88.6022,8.07551 -95.4474,7.98053 -5.225,-0.0725 -31.55,-1.78247 -58.5,-3.79993 z"
     id="path1556"
     inkscape:connector-curvature="0" />
  <path
     style="fill:#ed1f24;fill-opacity:1"
     d="M 1309.8632,69.387925 1310.1395,54.1 l 5.5,-0.736129 c 7.0613,-0.945101 33.1288,0.439524 90,4.780519 43.7563,3.339938 51.6513,4.08789 45.8065,4.339609 -3.7604,0.161947 -87.9179,7.002104 -95.5565,7.766638 -6.0718,0.607717 -7.7628,1.554895 -4.8033,2.69055 0.7957,0.30534 10.9162,1.572972 22.49,2.81696 11.5738,1.243988 20.7103,2.554999 20.3033,2.913358 -0.407,0.358359 -17.39,1.624657 -37.74,2.813995 -20.35,1.189339 -39.1493,2.393715 -41.7763,2.676392 l -4.7762,0.513958 z"
     id="path1558"
     inkscape:connector-curvature="0" />
  <path
     style="fill:#ed1f24;fill-opacity:1"
     d="m 1309.6395,69.757204 c 0,-10.933194 0.3412,-15.260047 1.25,-15.848187 1.7101,-1.106803 27.7987,-0.764496 47.25,0.619964 26.3007,1.871977 80.4559,6.086752 88.5,6.88776 l 7.5,0.746828 -15,1.256084 c -8.25,0.690846 -31.3882,2.60925 -51.4182,4.263121 -20.03,1.653871 -36.8694,3.285937 -37.4209,3.626814 -1.9742,1.220084 3.7371,2.293507 23.8737,4.487042 11.2431,1.224736 20.1097,2.527225 19.7037,2.894418 -0.4061,0.367194 -16.9383,1.629086 -36.7383,2.804205 -19.8,1.175119 -38.5875,2.398602 -41.75,2.71885 l -5.75,0.582271 z"
     id="path1560"
     inkscape:connector-curvature="0" />
  <path
     style="fill:#ed1f24;fill-opacity:1"
     d="m 1309.4686,115.34938 c -0.2567,-3.70535 9e-4,-4.74862 1.1709,-4.7415 2.7036,0.0165 41.2333,4.89213 41.6062,5.26498 0.2,0.20001 -9.269,1.23294 -21.0421,2.2954 L 1309.7978,120.1 Z"
     id="path1562"
     inkscape:connector-curvature="0" />
</svg>
