<?xml version="1.0" encoding="UTF-8" standalone="no"?>
<!-- Created with Inkscape (http://www.inkscape.org/) -->

<svg
   xmlns:dc="http://purl.org/dc/elements/1.1/"
   xmlns:cc="http://creativecommons.org/ns#"
   xmlns:rdf="http://www.w3.org/1999/02/22-rdf-syntax-ns#"
   xmlns:svg="http://www.w3.org/2000/svg"
   xmlns="http://www.w3.org/2000/svg"
   xmlns:sodipodi="http://sodipodi.sourceforge.net/DTD/sodipodi-0.dtd"
   xmlns:inkscape="http://www.inkscape.org/namespaces/inkscape"
   width="79.375mm"
   height="79.375mm"
   viewBox="0 0 79.375 79.375"
   version="1.1"
   id="svg8"
   inkscape:version="0.92.0 r"
   sodipodi:docname="fancy-table-corner.svg"
   inkscape:export-filename="/home/romain/bitmap.png"
   inkscape:export-xdpi="300"
   inkscape:export-ydpi="300">
  <defs
     id="defs2" />
  <sodipodi:namedview
     id="base"
     pagecolor="#ffffff"
     bordercolor="#666666"
     borderopacity="1.0"
     inkscape:pageopacity="0.0"
     inkscape:pageshadow="2"
     inkscape:zoom="1.979899"
     inkscape:cx="116.66238"
     inkscape:cy="156.87271"
     inkscape:document-units="mm"
     inkscape:current-layer="g5110"
     showgrid="false"
     fit-margin-top="0"
     fit-margin-left="0"
     fit-margin-right="0"
     fit-margin-bottom="0"
     inkscape:window-width="1918"
     inkscape:window-height="1078"
     inkscape:window-x="2048"
     inkscape:window-y="0"
     inkscape:window-maximized="1"
     inkscape:pagecheckerboard="true" />
  <metadata
     id="metadata5">
    <rdf:RDF>
      <cc:Work
         rdf:about="">
        <dc:format>image/svg+xml</dc:format>
        <dc:type
           rdf:resource="http://purl.org/dc/dcmitype/StillImage" />
        <dc:title></dc:title>
      </cc:Work>
    </rdf:RDF>
  </metadata>
  <g
     inkscape:label="Layer 1"
     inkscape:groupmode="layer"
     id="layer1"
     transform="translate(0,-217.625)">
    <g
       id="g5110">
      <path
         style="fill:#fefefe;fill-rule:evenodd;stroke:none;stroke-width:0.26458332px;stroke-linecap:butt;stroke-linejoin:miter;stroke-opacity:1;fill-opacity:1"
         d="m -3.6852677,233.12202 28.5372017,-0.0945 11.717263,-1.51191 6.566694,-3.6375 H 57.68332 l 4.871738,6.28334 7.32286,5.38003 -5.08e-4,60.05732 -72.5232433,-0.33095 z"
         id="path5289"
         inkscape:connector-curvature="0" />
      <g
         id="g5275"
         style="fill:#000000;fill-opacity:1;stroke:#deb400;stroke-width:2;stroke-miterlimit:4;stroke-dasharray:none;stroke-opacity:1;paint-order:markers stroke fill"
         transform="translate(197.99999)">
        <path
           style="fill:#000000;fill-opacity:1;fill-rule:evenodd;stroke:#deb400;stroke-width:2;stroke-linecap:butt;stroke-linejoin:miter;stroke-miterlimit:4;stroke-dasharray:none;stroke-opacity:0.98310284;paint-order:markers stroke fill"
           d="m -165.66807,218.7903 a 2,2 0 0 0 -1.69085,0.9369 h -30.68856 -0.94517 l 0.047,2.127 h 28.70264 2.88251 a 2,2 0 0 0 1.6924,0.93638 2,2 0 0 0 1.69137,-0.93638 l 22.5547,-5.2e-4 c 0,0 0.009,1.65762 0.51263,3.89744 l -15.89154,5.2e-4 v 1.27537 c 0,0 -1.13616,2.1134 -5.34902,3.38119 -4.21286,1.2678 -13.12478,1.45779 -13.12478,1.45779 l -23.43423,5.2e-4 -5.2e-4,2.127 25.74985,5.2e-4 c 0,0 9.41668,-0.53993 13.14132,-2.20452 3.72463,-1.66459 4.95422,-3.91139 4.95422,-3.91139 h 14.54743 c 0.69136,2.04166 1.81376,4.2653 3.64267,6.0942 2.91925,2.91925 6.34868,4.66077 8.55193,5.56917 l -5.1e-4,18.38544 v 41.67188 l 2.127,0.047 v -41.7189 -6.66212 l 6.00428,-5.90042 -0.002,-6.23631 c 0,0 -2.62968,-0.0764 -6.00273,-1.13068 v -0.38706 c 0,0 -0.12631,-6.34821 -2.95331,-9.42578 -2.82701,-3.07757 -9.52035,-2.43344 -9.52035,-2.43344 h -0.21239 c -0.83884,-3.32233 -0.53795,-6.02392 -0.53795,-6.02392 h -24.7556 a 2,2 0 0 0 -1.69292,-0.9369 z m 29.33361,9.01392 c 1.43185,0.0185 3.67564,0.30361 5.46065,1.69189 2.85602,2.22125 2.75177,7.68894 2.75177,7.68894 v 0.0434 c -2.00497,-0.82967 -4.12196,-2.01945 -6.02547,-3.72845 -1.89017,-1.69702 -3.09197,-3.6887 -3.853,-5.62188 h 0.23978 c 0,0 0.56716,-0.085 1.42627,-0.0739 z m 10.33891,12.50518 c 0.0495,0.0143 0.14107,0.0413 0.14107,0.0413 l 3.73621,0.75603 v 3.35484 l -3.87728,3.69228 z"
           id="path5247"
           inkscape:connector-curvature="0" />
      </g>
    </g>
  </g>
</svg>
