<?xml version="1.0" encoding="UTF-8" standalone="no"?>
<!-- Created with Inkscape (http://www.inkscape.org/) -->

<svg
   xmlns:dc="http://purl.org/dc/elements/1.1/"
   xmlns:cc="http://creativecommons.org/ns#"
   xmlns:rdf="http://www.w3.org/1999/02/22-rdf-syntax-ns#"
   xmlns:svg="http://www.w3.org/2000/svg"
   xmlns="http://www.w3.org/2000/svg"
   xmlns:sodipodi="http://sodipodi.sourceforge.net/DTD/sodipodi-0.dtd"
   xmlns:inkscape="http://www.inkscape.org/namespaces/inkscape"
   width="793.94189mm"
   height="56.203133mm"
   viewBox="0 0 793.94189 56.203133"
   version="1.1"
   id="svg8"
   sodipodi:docname="footer.svg"
   inkscape:version="0.92.0 r">
  <defs
     id="defs2" />
  <sodipodi:namedview
     id="base"
     pagecolor="#ffffff"
     bordercolor="#666666"
     borderopacity="1.0"
     inkscape:pageopacity="0.0"
     inkscape:pageshadow="2"
     inkscape:zoom="0.49497475"
     inkscape:cx="775.4144"
     inkscape:cy="-67.622642"
     inkscape:document-units="mm"
     inkscape:current-layer="g4707"
     showgrid="false"
     inkscape:window-width="1918"
     inkscape:window-height="1078"
     inkscape:window-x="2048"
     inkscape:window-y="0"
     inkscape:window-maximized="1"
     fit-margin-top="0"
     fit-margin-left="0"
     fit-margin-right="0"
     fit-margin-bottom="0" />
  <metadata
     id="metadata5">
    <rdf:RDF>
      <cc:Work
         rdf:about="">
        <dc:format>image/svg+xml</dc:format>
        <dc:type
           rdf:resource="http://purl.org/dc/dcmitype/StillImage" />
        <dc:title></dc:title>
      </cc:Work>
    </rdf:RDF>
  </metadata>
  <g
     inkscape:label="Layer 1"
     inkscape:groupmode="layer"
     id="layer1"
     transform="translate(756.81489,101.31055)">
    <g
       id="g4707">
      <path
         sodipodi:type="inkscape:offset"
         inkscape:radius="0.056764293"
         inkscape:original="M -756.56445 -101.25391 C -756.64379 -101.25391 -756.70898 -100.49618 -756.70898 -99.570312 L -756.70898 -97.888672 L -754.70312 -95.710938 C -753.60059 -94.51361 -752.75502 -93.477363 -752.82422 -93.408203 C -752.89337 -93.339047 -753.67294 -93.647659 -754.55664 -94.09375 C -756.44442 -95.046698 -756.70898 -95.0811 -756.70898 -94.378906 L -756.70898 -93.853516 L -755.16797 -93.076172 C -754.32095 -92.648599 -752.55399 -91.580572 -751.24219 -90.703125 L -748.85742 -89.107422 L -745.70508 -85.847656 C -740.85583 -80.830875 -738.8491 -77.91359 -736.64648 -72.679688 C -736.00345 -71.151719 -735.38768 -69.802185 -735.27734 -69.681641 L -735.07617 -69.462891 L -733.74609 -70.644531 C -729.2298 -74.655638 -722.66027 -77.355944 -713.58203 -78.931641 L -710.80273 -79.414062 L -365.78711 -79.482422 L -20.769531 -79.552734 L -20.107422 -79.220703 C -19.74362 -79.037794 -18.564161 -77.709545 -17.486328 -76.269531 L -15.527344 -73.650391 L -7.1679688 -65.433594 C -2.5704893 -60.914312 3.9284114 -54.505447 7.2753906 -51.191406 L 13.361328 -45.166016 L 14.619141 -45.164062 C 15.310364 -45.1632 15.875 -45.267897 15.875 -45.396484 C 15.875 -45.525072 15.368464 -46.079126 14.75 -46.626953 C 12.73541 -48.411449 -2.6659448 -63.752037 -2.5546875 -63.863281 C -2.4952092 -63.922781 -1.8073931 -63.724505 -1.0253906 -63.423828 C 1.5183665 -62.445735 5.5559878 -61.54829 8.6914062 -61.261719 L 11.761719 -60.980469 L 14.828125 -61.271484 C 22.359358 -61.986492 28.603824 -64.544036 34.539062 -69.34375 L 36.910156 -71.259766 L 36.990234 -72.8125 L 37.070312 -74.365234 L 34.978516 -72.365234 C 32.55914 -70.053794 29.892141 -68.188211 26.759766 -66.613281 C 16.404635 -61.406816 3.2691608 -62.085643 -6.4042969 -68.328125 C -8.8135928 -69.882885 -11.96544 -72.53182 -13.382812 -74.193359 C -14.845111 -75.907544 -16.933594 -78.769068 -16.933594 -79.058594 C -16.933594 -79.188106 -16.539845 -79.294922 -16.058594 -79.294922 L -15.183594 -79.294922 L -13.875 -77.511719 C -11.403792 -74.141888 -7.8910386 -71.064739 -3.9042969 -68.779297 L -1.5917969 -67.453125 L 1.2675781 -66.503906 C 2.8404202 -65.981428 5.3117275 -65.359356 6.7597656 -65.121094 L 9.3925781 -64.6875 L 12.964844 -64.837891 L 16.537109 -64.990234 L 18.785156 -65.503906 C 25.024957 -66.927629 30.644585 -70.140918 34.990234 -74.771484 L 37.041016 -76.957031 L 37.041016 -78 L 37.041016 -79.042969 L 35.482422 -77.25 C 30.346992 -71.344103 24.863829 -68.050368 17.726562 -66.583984 L 14.949219 -66.013672 L 10.714844 -66.150391 L 6.4824219 -66.287109 L 4.4980469 -66.814453 C -1.4736254 -68.398963 -6.1056016 -71.023883 -10.095703 -75.087891 C -11.20997 -76.222795 -12.633285 -77.931903 -13.259766 -78.884766 L -14.400391 -80.617188 L -16.378906 -80.617188 L -18.357422 -80.617188 L -20.091797 -81.660156 C -21.046413 -82.233704 -22.781146 -83.036596 -23.945312 -83.445312 L -26.060547 -84.189453 L -361.28906 -84.339844 L -696.51562 -84.490234 L -700.35156 -84.802734 C -724.19125 -86.748093 -742.53107 -91.881747 -754.50391 -99.960938 C -755.55798 -100.67222 -756.48515 -101.25391 -756.56445 -101.25391 z M -754.26953 -97.167969 C -754.18231 -97.25519 -752.69958 -96.548482 -750.97656 -95.597656 C -738.9276 -88.948575 -722.60223 -84.803408 -701.14648 -82.945312 L -697.57422 -82.634766 L -362.21484 -82.482422 L -26.855469 -82.330078 L -25.267578 -81.851562 C -24.394453 -81.58768 -23.506064 -81.201462 -23.292969 -80.994141 L -22.90625 -80.617188 L -366.58984 -80.615234 L -710.27344 -80.615234 L -713.80078 -80.095703 C -721.77763 -78.922135 -728.07362 -76.605615 -732.85742 -73.083984 C -733.75275 -72.42488 -734.53651 -71.886719 -734.59961 -71.886719 C -734.66271 -71.886719 -735.24959 -73.016329 -735.9043 -74.398438 C -738.39623 -79.658949 -740.9542 -83.072 -747.30469 -89.613281 C -754.05491 -96.566299 -754.44635 -96.991152 -754.26953 -97.167969 z "
         style="fill:#e0c98d;stroke-width:1;fill-opacity:1"
         id="path4709"
         d="m -756.56445,-101.31055 c -0.44729,1.598358 -0.15211,3.876284 -0.18555,3.460941 2.13805,2.245453 3.62512,4.100756 3.85547,4.390625 -0.0236,-0.0032 -0.051,-0.009 -0.0898,-0.01953 -0.0929,-0.02519 -0.22307,-0.07114 -0.3789,-0.132812 -0.31166,-0.123346 -0.72741,-0.310811 -1.16797,-0.533203 -0.9446,-0.476831 -1.47918,-0.726752 -1.80273,-0.769531 -0.0809,-0.01069 -0.14926,-0.0073 -0.20899,0.01172 -0.0597,0.01904 -0.10905,0.05569 -0.14258,0.105469 -0.067,0.09956 -0.0801,0.238856 -0.0801,0.417969 v 0.52539 a 0.05676997,0.05676997 0 0 0 0.0312,0.05078 l 1.54102,0.777343 c 0.84142,0.424748 2.61001,1.492956 3.91992,2.369141 l 2.37891,1.591797 3.14844,3.255859 c 4.84704,5.014501 6.84611,7.920899 9.04687,13.150391 0.32171,0.764448 0.63632,1.485129 0.88477,2.029297 0.12422,0.272084 0.23263,0.499659 0.3164,0.667968 0.0419,0.08415 0.0781,0.154337 0.10743,0.207032 0.0294,0.05269 0.0495,0.0865 0.0723,0.111328 l 0.20117,0.21875 a 0.05676997,0.05676997 0 0 0 0.0781,0.0039 l 1.33008,-1.18164 c 4.50531,-4.001358 11.06469,-6.698821 20.13671,-8.273438 l 2.77539,-0.482422 345.00977,-0.06836 345.003907,-0.07031 0.650391,0.326172 c 0.07731,0.03887 0.219481,0.154948 0.396484,0.326172 0.177003,0.171224 0.392032,0.397342 0.628906,0.664062 0.473748,0.533441 1.038191,1.224602 1.576172,1.94336 l 1.958984,2.61914 a 0.05676997,0.05676997 0 0 0 0.0059,0.0078 l 8.3593748,8.216797 c 4.5974182,4.519222 11.0964859,10.928251 14.4433593,14.242187 L 13.322266,-45.125 a 0.05676997,0.05676997 0 0 0 0.03906,0.01563 l 1.257813,0.002 c 0.348496,4.35e-4 0.665788,-0.02528 0.898437,-0.06836 0.116325,-0.02154 0.210569,-0.0472 0.28125,-0.07813 0.03534,-0.01546 0.06398,-0.03114 0.08789,-0.05273 0.02391,-0.0216 0.04492,-0.053 0.04492,-0.08984 0,-0.03471 -0.01226,-0.06148 -0.0293,-0.09375 -0.01703,-0.03227 -0.04071,-0.06867 -0.07031,-0.109375 -0.0592,-0.0814 -0.143206,-0.180434 -0.246093,-0.292969 -0.205775,-0.22507 -0.488244,-0.502233 -0.798829,-0.777344 -1.000604,-0.886322 -5.3591928,-5.170255 -9.4472652,-9.242187 -2.0440363,-2.035967 -4.020972,-4.020463 -5.4804688,-5.501953 -0.72974839,-0.740746 -1.3301086,-1.355866 -1.7441406,-1.789063 -0.207016,-0.216599 -0.368161,-0.38777 -0.4746094,-0.505859 -0.040028,-0.04441 -0.063808,-0.07291 -0.087891,-0.101563 0.013371,0.0017 0.020967,0.0011 0.037109,0.0039 0.081554,0.0143 0.1965688,0.04251 0.3339843,0.08203 0.274831,0.07905 0.641551,0.203677 1.03125,0.353515 2.5516814,0.98114 6.5887518,1.878869 9.7304688,2.166016 l 3.0703121,0.28125 a 0.05676997,0.05676997 0 0 0 0.01172,0 l 3.066406,-0.291016 c 7.540974,-0.715932 13.797526,-3.278229 19.740235,-8.083984 l 2.371093,-1.916016 a 0.05676997,0.05676997 0 0 0 0.02148,-0.04297 l 0.08008,-1.552735 0.08008,-1.552734 a 0.05676997,0.05676997 0 0 0 -0.0957,-0.04297 l -2.091797,2 c -2.415341,2.307585 -5.077223,4.16953 -8.205078,5.742188 -10.33615,5.196921 -23.4520599,4.519866 -33.1074219,-1.710938 -2.4035657,-1.551062 -5.5570581,-4.202878 -6.9667971,-5.855469 -0.729687,-0.855379 -1.6162,-1.998136 -2.320312,-2.96289 -0.352056,-0.482377 -0.659229,-0.921504 -0.876953,-1.25586 -0.108863,-0.167177 -0.19513,-0.306924 -0.253907,-0.414062 -0.02939,-0.05357 -0.05197,-0.09844 -0.06641,-0.132813 -0.01443,-0.03437 -0.01953,-0.06146 -0.01953,-0.0625 0,-0.0036 0.0064,-0.01973 0.04297,-0.04297 0.03658,-0.02324 0.09606,-0.04786 0.171875,-0.06836 0.151626,-0.04101 0.367089,-0.06836 0.603515,-0.06836 h 0.845703 l 1.292969,1.759765 c 2.476633,3.377229 5.9949484,6.458827 9.9882814,8.748047 l 2.3125,1.326172 a 0.05676997,0.05676997 0 0 0 0.00977,0.0059 L 1.25,-66.449219 c 1.5769316,0.523837 4.0465528,1.145614 5.5,1.384766 l 2.6328125,0.433594 a 0.05676997,0.05676997 0 0 0 0.011719,0 l 3.5722658,-0.150391 3.572265,-0.152344 a 0.05676997,0.05676997 0 0 0 0.0098,-0.002 l 2.248047,-0.513672 c 6.250654,-1.426199 11.880983,-4.644386 16.234375,-9.283203 l 2.050781,-2.185547 a 0.05676997,0.05676997 0 0 0 0.01563,-0.03906 V -78 -79.042969 a 0.05676997,0.05676997 0 0 0 -0.09961,-0.03711 l -1.558594,1.792969 c -5.129159,5.898685 -10.598142,9.184272 -17.724609,10.648437 l -2.769532,0.56836 -4.228515,-0.136719 -4.2265626,-0.136719 -1.9785156,-0.525391 c -5.9636848,-1.58239 -10.5831303,-4.200756 -14.5664068,-8.257812 -1.111237,-1.131818 -2.536286,-2.843142 -3.158203,-3.789063 l -1.140625,-1.732422 a 0.05676997,0.05676997 0 0 0 -0.04687,-0.02539 h -1.978515 -1.962891 l -1.720703,-1.035156 c -0.960592,-0.577139 -2.693822,-1.378488 -3.863281,-1.789063 l -2.115235,-0.744141 a 0.05676997,0.05676997 0 0 0 -0.01953,-0.0039 l -335.228513,-0.15039 -335.22461,-0.150391 -3.83399,-0.3125 c -23.83397,-1.944893 -42.16519,-7.078044 -54.125,-15.148435 -0.52748,-0.35595 -1.02225,-0.67925 -1.39648,-0.91407 -0.18712,-0.1174 -0.34328,-0.21298 -0.45898,-0.27929 -0.0579,-0.0332 -0.10575,-0.0599 -0.14258,-0.0781 -0.0184,-0.009 -0.0349,-0.0161 -0.0488,-0.0215 -0.0139,-0.005 -0.0226,-0.01 -0.0449,-0.01 z m 2.33203,4.193362 c 1.17871,0.27018 4.00032,2.351204 3.22851,1.56836 12.05922,6.654739 28.39105,10.801648 49.85157,12.660156 l 3.57226,0.310547 a 0.05676997,0.05676997 0 0 0 0.006,0 l 335.35938,0.152344 335.351559,0.152343 1.580078,0.476563 c 0.434325,0.131265 0.872988,0.29283 1.228515,0.447266 0.355528,0.154435 0.631741,0.308032 0.722657,0.396484 l 0.287109,0.279297 -343.544918,0.002 h -343.6836 a 0.05676997,0.05676997 0 0 0 -0.008,0 l -3.52734,0.519531 c -7.98324,1.174508 -14.28866,3.494756 -19.08203,7.023438 -0.44724,0.329236 -0.86663,0.627325 -1.18165,0.84375 -0.1575,0.108212 -0.28954,0.195815 -0.38476,0.255859 -0.0476,0.03002 -0.0859,0.05335 -0.11328,0.06836 -0.007,0.0038 -0.0103,0.0051 -0.0156,0.0078 -0.004,-0.0057 -0.008,-0.009 -0.0137,-0.01758 -0.0217,-0.03122 -0.0532,-0.07955 -0.0898,-0.142578 -0.0733,-0.126065 -0.17303,-0.309985 -0.29102,-0.53711 -0.23597,-0.454248 -0.54594,-1.080953 -0.87305,-1.771484 -2.49429,-5.265508 -5.05809,-8.687573 -11.41015,-15.230469 -3.37509,-3.476488 -5.16173,-5.322198 -6.08008,-6.318359 -0.45918,-0.49808 -0.70127,-0.783925 -0.81445,-0.951172 -0.0566,-0.08362 -0.0795,-0.139013 -0.084,-0.166016 -0.003,-0.02015 0.003,-0.02219 0.01,-0.0293 z" />
    </g>
  </g>
</svg>
