<?xml version="1.0" encoding="UTF-8" standalone="no"?>
<!-- Created with Inkscape (http://www.inkscape.org/) -->

<svg
   xmlns:dc="http://purl.org/dc/elements/1.1/"
   xmlns:cc="http://creativecommons.org/ns#"
   xmlns:rdf="http://www.w3.org/1999/02/22-rdf-syntax-ns#"
   xmlns:svg="http://www.w3.org/2000/svg"
   xmlns="http://www.w3.org/2000/svg"
   xmlns:sodipodi="http://sodipodi.sourceforge.net/DTD/sodipodi-0.dtd"
   xmlns:inkscape="http://www.inkscape.org/namespaces/inkscape"
   width="210mm"
   height="282.5mm"
   viewBox="0 0 210 282.5"
   version="1.1"
   id="svg8"
   inkscape:version="0.92.0 r"
   sodipodi:docname="full-page-decoration.svg">
  <defs
     id="defs2" />
  <sodipodi:namedview
     id="base"
     pagecolor="#ffffff"
     bordercolor="#666666"
     borderopacity="1.0"
     inkscape:pageopacity="0.0"
     inkscape:pageshadow="2"
     inkscape:zoom="0.49497475"
     inkscape:cx="346.25041"
     inkscape:cy="492.04126"
     inkscape:document-units="mm"
     inkscape:current-layer="layer1"
     showgrid="false"
     inkscape:window-width="1918"
     inkscape:window-height="1078"
     inkscape:window-x="2048"
     inkscape:window-y="0"
     inkscape:window-maximized="1" />
  <metadata
     id="metadata5">
    <rdf:RDF>
      <cc:Work
         rdf:about="">
        <dc:format>image/svg+xml</dc:format>
        <dc:type
           rdf:resource="http://purl.org/dc/dcmitype/StillImage" />
        <dc:title></dc:title>
      </cc:Work>
    </rdf:RDF>
  </metadata>
  <g
     inkscape:label="Layer 1"
     inkscape:groupmode="layer"
     id="layer1"
     transform="translate(0,-14.5)">
    <path
       style="opacity:1;fill:#e0c98d;fill-opacity:0.86274511;fill-rule:nonzero;stroke:none;stroke-width:3.77952766;stroke-linecap:butt;stroke-linejoin:miter;stroke-miterlimit:4;stroke-dasharray:none;stroke-dashoffset:0;stroke-opacity:0.49890591;paint-order:markers stroke fill"
       d="M 191.38477 -10.408203 C 191.38477 -10.408203 182.93943 2.0853008 179.73242 8.8769531 C 175.02995 18.835634 171.01317 29.259046 168.75 40.037109 C 166.22309 52.071239 165.10616 64.558911 165.98242 76.824219 C 166.32134 81.568149 168.48221 89.600823 169.45508 93.041016 C 169.45433 93.042258 169.45387 93.04368 169.45312 93.044922 C 165.40514 99.766445 161.98119 106.97669 159.79297 114.51172 C 158.18025 120.06502 157.33203 131.68359 157.33203 131.68359 C 157.33203 131.68359 148.61608 127.08006 144.76758 124.04492 C 141.61325 121.55725 136.83108 116.27196 135.42383 114.69531 C 139.50738 108.98826 143.0235 102.85808 146.15625 96.582031 C 149.982 88.917629 153.2363 80.924203 155.68945 72.716797 C 158.43867 63.518867 160.08593 54.000755 161.43555 44.496094 C 162.09156 39.876124 162.40981 35.206452 162.57227 30.542969 C 162.66649 27.837882 162.56517 23.953168 162.5 21.738281 C 163.19591 20.917578 163.88213 20.086482 164.55273 19.234375 C 170.38916 11.818318 179.48242 -5.5507812 179.48242 -5.5507812 L 176.26758 -5.7285156 C 176.26758 -5.7285156 167.87708 10.135248 162.32227 17.181641 C 156.76746 24.228033 150.01963 30.455724 142.39453 35.875 C 134.76943 41.294272 128.07161 45.65034 116.875 49.234375 C 105.67839 52.81841 89.267854 55.999304 75.535156 54.949219 C 61.802458 53.899134 45.569249 47.647283 36.339844 43.251953 C 29.340843 39.918811 23.291643 35.051308 20.757812 32.876953 L 20.757812 2.1816406 C 20.757813 2.1816406 21.839225 4.6210955 26.160156 8.8769531 C 30.481087 13.132811 39.25269 21.380512 48.044922 25.996094 C 56.837154 30.611675 67.893871 34.410059 78.392578 35.484375 C 88.891286 36.558691 100.08237 35.275214 109.76367 32.365234 C 119.44498 29.455251 127.6225 25.326694 135.53516 18.787109 C 143.44782 12.247525 158.32812 -6.1894531 158.32812 -6.1894531 L 155.56055 -6.1894531 C 155.56055 -6.1894531 141.43831 10.322044 133.92773 16.376953 C 126.41716 22.431862 118.42147 26.543602 109.07812 29.332031 C 99.734774 32.120468 88.822603 33.291357 78.75 32.359375 C 68.677397 31.427393 58.25982 28.235837 49.746094 23.892578 C 41.232368 19.549319 33.416169 12.323765 28.302734 7.2695312 C 23.1893 2.2152975 18.349609 -5.265625 18.349609 -5.265625 L 18.349609 72.046875 C 18.349609 72.046875 37.278175 62.49356 48.125 63.966797 C 58.971825 65.440034 70.86414 73.090429 77.5 81.734375 C 84.13586 90.378321 85.975224 103.7051 86.160156 111.55664 C 86.288913 117.02317 84.407721 121.96469 83.242188 124.49805 C 80.306034 127.0263 77.03756 129.06762 73.814453 130.77734 C 73.789786 130.71807 73.757586 130.65885 73.734375 130.59961 C 72.327113 127.00778 74.688484 122.91193 74.552734 119.05664 C 74.336923 112.92797 74.327736 106.50077 71.964844 100.8418 C 69.084156 93.942715 64.292062 87.576951 58.392578 82.984375 C 54.665707 80.083115 49.998279 78.295641 45.353516 77.439453 C 41.371368 76.705408 37.152709 76.951384 33.214844 77.894531 C 30.329936 78.585489 27.557469 79.915046 25.134766 81.626953 C 22.750474 83.311719 20.542234 85.404813 19.017578 87.894531 C 16.491134 92.020143 14.373047 101.64453 14.373047 101.64453 L 14.375 196.2793 A 10.47874 10.415038 0 0 0 9.4746094 202.06836 L 0 202.06836 L 0 204.01172 L 9.0117188 204.01172 A 10.47874 10.415038 0 0 0 8.9023438 205.42773 A 10.47874 10.415038 0 0 0 14.509766 214.64062 L 14.509766 570.74219 C 13.396929 566.96258 12.419542 563.2712 11.552734 559.73633 C 9.6923028 552.14942 7.6386719 538.64844 7.6386719 538.64844 L -6.25 534.60938 L -6.1875 538.01758 L 5.1132812 541.04883 C 5.1132812 541.04883 6.8835107 552.85523 8.7753906 560.36719 C 10.667271 567.87915 13.43299 577.43409 16.857422 585.9375 C 20.281853 594.44091 25.686959 604.13332 29.359375 611.19922 C 32.977125 618.15994 38.473046 627.93017 38.638672 628.22461 C 33.311071 629.2362 28.087946 630.70379 23.53125 632.58789 C 11.22509 637.67638 -2.171875 653.61719 -2.171875 653.61719 L -2.3613281 656.70898 C -2.3613281 656.70898 12.501445 639.53686 24.71875 634.50586 C 28.399106 632.99031 32.442644 631.8468 36.564453 631.01758 C 32.475756 635.72292 27.911232 639.91693 24.8125 645.03125 C 21.200813 651.2217 17.840129 658.75788 16.857422 666.24414 C 15.874715 673.7304 16.42441 682.15667 19.066406 688.7832 C 21.070527 693.80984 27.040251 700.68067 29.826172 703.72852 C 28.465583 709.6392 27.920734 715.56724 28.03125 722.8125 C 28.076285 725.76488 28.242323 728.8608 28.544922 732.03906 C 26.046829 732.22382 21.037403 732.60808 16.492188 733.15234 C 10.632779 733.85379 -4.8222656 736.19922 -4.8222656 736.19922 L -5 737.84961 C -5 737.84961 10.670999 735.32094 16.5625 734.5918 C 18.243364 734.38377 20.095741 734.2092 21.925781 734.05273 C 21.958155 736.22184 22.222452 749.82402 24.054688 757.85156 C 26.042852 766.56228 29.232033 775.95676 34.28125 784.87305 C 39.330466 793.78933 46.270426 802.94829 54.484375 810.44336 C 57.227407 812.94632 60.051282 815.30844 63.007812 817.54102 C 62.17878 818.3173 60.755219 819.76892 58.400391 822.62891 C 54.487514 827.38117 45.033305 836.06202 41.478516 846.05078 C 39.187881 852.48734 36.836435 860.64522 36.853516 868.45312 C 34.804213 868.47026 26.386526 868.5561 20.089844 869.05664 C 12.995604 869.62062 -4.1972656 872.0918 -4.1972656 872.0918 L -4.375 874.32422 C -4.375 874.32422 13.253443 871.79455 20.402344 871.28711 C 26.710781 870.83953 34.866761 870.9084 36.947266 870.92969 C 37.193322 874.36397 37.945213 877.68978 39.458984 880.71289 C 42.095742 885.97868 46.213174 891.79308 51.443359 895.24609 C 55.833137 898.14427 62.052722 899.59351 67.003906 900.01367 C 60.875808 902.00738 55.780025 904.1215 52.589844 905.93164 C 49.28342 908.16642 47.420303 909.88701 46.181641 911.47656 C 46.088486 909.27713 45.842136 906.1864 45.078125 904.38672 C 43.840265 901.47085 42.122854 899.11692 38.890625 896.43164 C 35.658394 893.74636 29.816582 891.10887 25.443359 889.48828 C 21.070137 887.8677 17.829515 887.3344 12.943359 886.51953 C 8.0572039 885.70467 -3.5990243 884.81579 -3.8515625 884.87891 L -3.7363281 886.06055 C -3.7363281 886.06055 7.6882536 886.95356 12.5 887.7832 C 17.311746 888.61285 20.650098 889.14336 24.9375 890.75 C 29.224902 892.35664 34.897172 894.91638 37.943359 897.56836 C 40.989545 900.22034 42.273029 902.27888 43.5 905.33398 C 44.380254 907.52576 44.598392 911.68084 44.65625 913.89258 C 44.005174 915.14925 43.482573 916.44318 42.677734 917.98438 C 37.981278 926.98154 27.634848 951.3511 21.777344 965.96094 C 15.91984 980.57078 11.053821 994.44622 7.2695312 1005.4922 C 3.4852413 1016.5382 -1.2128906 1032.123 -1.2128906 1032.123 L -1.0273438 1035.5742 C -1.0273438 1035.5742 4.7783687 1017.9041 8.8398438 1006.377 C 12.901319 994.84981 17.670812 981.10033 23.482422 966.4668 C 29.294032 951.83326 39.281561 927.64903 43.927734 918.69922 C 47.830905 910.84944 49.732626 909.46978 54.017578 907.26953 C 58.051882 905.20594 64.960758 902.51359 73.162109 900.16992 C 83.012808 900.22481 95.617187 900.2207 95.617188 900.2207 L 211.21289 899.9375 C 212.13273 908.94327 212.31487 917.75515 211.68945 926.99023 C 210.80073 940.11351 207.71417 954.75858 204.17773 966.57422 C 200.64129 978.38985 197.44641 986.37408 191.23438 997.70117 C 185.02234 1009.0283 174.4348 1024.2733 166.16992 1033.623 C 157.90505 1042.9728 150.66524 1048.2106 143.0625 1054.3945 C 135.45976 1060.5785 120.71289 1070.8105 120.71289 1070.8105 L 122.98633 1071.0625 C 122.98633 1071.0625 136.76219 1062.011 144.26172 1055.9727 C 151.76125 1049.9343 159.36514 1044.0883 167.68555 1034.6348 C 176.00595 1025.1812 186.57972 1010.1611 192.87695 998.71094 C 199.17419 987.26078 202.62095 978.83319 206.13477 966.82812 C 209.64858 954.82306 212.33678 940.11803 213.20508 926.92578 C 213.81318 917.6868 213.77999 908.9443 212.9707 899.93359 L 219.05664 899.91797 C 219.41547 904.05217 219.60273 908.27146 219.64453 912.84766 C 219.75487 924.92933 218.61679 938.29504 215.98242 951.16992 C 213.34805 964.04481 209.16787 977.35291 203.73438 989.61914 C 198.30088 1001.8854 191.04429 1014.1375 183.5957 1024.3438 C 176.14711 1034.55 168.00172 1043.0668 159.66797 1050.7969 C 151.33422 1058.527 133.9707 1070.7461 133.9707 1070.7461 L 136.62305 1071.125 C 136.62305 1071.125 152.57057 1059.9191 160.74023 1052.3125 C 168.9099 1044.7059 177.54535 1035.6263 185.11133 1025.291 C 192.67731 1014.9557 200.04457 1002.75 205.56641 990.37695 C 211.08824 978.00388 215.36103 964.50306 218.00391 951.48633 C 220.64678 938.4696 221.64939 924.95675 221.53906 912.78516 C 221.49769 908.22081 221.33218 904.02314 221.00391 899.91406 L 261.26953 899.81445 C 261.53165 902.9498 261.72809 906.13756 261.88281 909.50195 C 262.46455 922.15131 261.8259 935.70477 260.05078 948.14062 C 258.27568 960.57648 255.53011 971.72173 251.46484 983.81055 C 247.39958 995.89937 241.32461 1009.7151 235.49219 1020.3027 C 229.65976 1030.8904 223.74759 1039.0012 217.18359 1047.3867 C 210.61959 1055.7723 196.28516 1070.5566 196.28516 1070.5566 L 199.37891 1070.3672 C 199.37891 1070.3672 212.97068 1057.1248 219.51953 1049.0293 C 226.06838 1040.9338 232.38654 1032.4388 238.33203 1021.7539 C 244.27753 1011.069 250.35668 997.10239 254.43164 984.88477 C 258.5066 972.66714 261.21256 961.49177 262.95508 948.83398 C 264.6976 936.1762 265.1862 922.1119 264.59766 909.24805 C 264.44739 905.9636 264.2721 902.85615 264.04102 899.80859 L 335.76953 899.63281 C 335.76953 899.63281 336.72645 899.58579 338.11133 899.54297 C 344.49483 901.84552 351.55374 904.19585 357.5 905.66211 C 372.41088 909.33891 395.65429 912.79989 409.82227 913.43164 C 420.47374 913.90659 434.02336 912.59112 440.10352 911.9082 C 446.26099 913.37344 452.48015 915.00988 459.28516 916.95703 C 476.00945 921.74244 495.27878 928.24325 512.05273 935.35156 C 528.82669 942.45987 544.57903 950.30632 559.77734 959.36914 C 574.97566 968.43196 589.73432 979.41253 603.03516 989.54688 C 616.33599 999.68122 625.11555 1009.8994 639.64258 1019.9492 C 654.16961 1029.999 672.90895 1042.6044 690.40234 1048.832 C 707.89574 1055.0596 727.77396 1057.6982 742.67773 1057.627 C 757.58151 1057.5555 769.05415 1054.2433 778.52734 1051.2441 C 788.00054 1048.245 799.55273 1041.4219 799.55273 1041.4219 L 799.2207 1038.3594 C 799.2207 1038.3594 787.09914 1045.8904 777.69141 1048.9648 C 768.28367 1052.0393 757.46626 1055.0313 742.8418 1055.0898 C 728.21733 1055.1484 708.38554 1052.5489 691.19727 1046.4395 C 674.00899 1040.33 655.96784 1028.1856 641.57227 1018.2188 C 627.17669 1008.2519 618.11905 997.77034 604.70312 987.53516 C 591.2872 977.29997 576.35984 966.18358 561.01367 957.04102 C 545.6675 947.89845 529.70253 940.03045 512.8418 932.86133 C 495.98106 925.69221 476.79971 919.04774 459.99805 914.23633 C 443.19638 909.42491 429.79088 906.53907 412.33203 903.62891 C 394.87318 900.71875 368.12087 897.98963 355.32031 897.25391 C 342.51975 896.51818 335.75781 897.18555 335.75781 897.18555 C 327.44577 894.1047 320.89258 891.37695 320.89258 891.37695 L 263.23047 891.54492 C 262.49103 885.47286 261.38758 879.23999 259.60938 871.93555 C 256.13672 857.67066 250.14323 839.30229 242.5625 824.45898 C 234.98177 809.61568 222.26464 792.9055 214.59375 783.54883 C 206.92286 774.19215 198.49414 767.07031 198.49414 767.07031 C 198.49414 767.07031 187.74367 783.75188 181.07031 790.24023 C 174.39696 796.72859 170.24361 801.02436 159.16211 805.77148 C 148.08061 810.51861 129.79255 815.58924 114.52539 814.48438 C 99.258231 813.37951 83.641191 808.02519 70.773438 799.14258 C 57.905684 790.25997 46.785552 776.10073 40.216797 762.83984 C 33.648042 749.57896 31.41433 734.80995 31.1875 722.49609 C 30.960668 710.18224 32.653083 701.59752 37.123047 690.48828 C 41.593011 679.37904 50.075275 666.43143 58.714844 657.6582 C 67.354413 648.88497 87.314453 638.21289 87.314453 638.21289 C 87.314453 638.21289 74.903837 629.01092 63.955078 627.22656 C 57.679297 626.20378 49.360092 626.44828 41.083984 627.79688 C 40.370172 626.542 35.052695 617.18534 31.503906 610.24414 C 28.773998 604.90462 25.20925 598.05712 22.193359 591.48242 L 22.193359 215.44922 A 10.47874 10.415038 0 0 0 29.859375 205.42773 A 10.47874 10.415038 0 0 0 25.380859 196.90234 L 25.378906 130.92578 C 25.378906 130.92578 30.505413 134.04765 34.660156 135.59766 C 38.814898 137.14766 43.992887 139.52068 50.380859 139.57617 C 50.504577 139.57725 50.638683 139.56668 50.763672 139.56641 C 50.148814 141.41577 49.657868 143.27489 49.75 145.19531 C 49.904998 148.42635 50.749002 151.99851 52.970703 154.34961 C 56.916662 158.5254 63.142695 160.65651 68.878906 160.97852 C 76.865063 161.42683 84.685118 157.68821 91.923828 154.28516 C 98.9441 150.9848 105.2915 146.26713 111.17969 141.2168 C 119.52418 134.05967 127.01522 125.84412 133.66211 117.08594 C 134.82261 118.38431 139.72117 123.80001 142.9375 126.25391 C 148.04887 130.15364 159.66797 135.85156 159.66797 135.85156 C 159.66797 135.85156 160.46619 121.75177 162.38281 115.01562 C 164.50672 107.55095 167.96045 100.44258 171.97852 93.802734 C 175.78182 87.517792 180.56849 81.837971 185.55273 76.441406 C 190.78744 70.773657 196.53362 65.550729 202.59961 60.783203 C 213.46652 52.242423 225.03235 44.531573 237.07031 37.740234 C 248.91073 31.060339 261.38104 25.489143 274.00391 20.441406 C 285.89272 15.687207 298.14556 11.861223 310.43164 8.2558594 C 325.12226 3.9448849 354.95703 -3.0214844 354.95703 -3.0214844 L 346.05469 -3.0214844 C 346.05469 -3.0214844 321.36734 2.324878 309.23242 5.7929688 C 296.94678 9.3041347 284.72535 13.156891 272.86719 17.916016 C 260.20801 22.996615 247.7495 28.698262 235.87109 35.404297 C 228.41983 39.610958 221.1153 44.118989 214.05078 48.966797 C 215.81929 45.482249 218.96901 39.458866 221.34961 36.097656 C 227.89821 26.85159 235.28964 18.032003 243.88867 10.654297 C 253.25414 2.6190137 275.00977 -9.3964844 275.00977 -9.3964844 L 272.79883 -9.5214844 C 272.79883 -9.5214844 251.64507 2.1788958 242.5625 10.023438 C 233.96245 17.45123 226.67637 26.39747 220.08789 35.65625 C 217.23516 39.66519 213.32847 46.961719 211.26953 50.912109 C 207.7446 53.40003 204.27631 55.965014 200.89453 58.636719 C 195.75261 62.698986 190.89503 67.146507 186.35352 71.878906 C 186.17912 68.735375 185.77396 60.122674 186.31055 55.228516 C 187.27531 46.428993 189.31632 37.697806 192.24414 29.34375 C 194.97125 21.562379 198.89421 14.220531 202.97656 7.0566406 C 206.19294 1.4124 213.77344 -9.1699219 213.77344 -9.1699219 L 210.86914 -9.2324219 C 210.86914 -9.2324219 203.27788 0.75891878 200.13672 6.171875 C 195.9978 13.304191 192.21712 20.725574 189.5293 28.521484 C 186.55547 37.146937 184.4277 46.148949 183.53125 55.228516 C 182.972 60.892818 183.63211 70.841246 183.90625 74.484375 C 183.88698 74.505434 183.86692 74.525806 183.84766 74.546875 C 179.38002 79.434129 175.0481 84.522485 171.375 90.033203 C 170.61885 86.665425 169.12886 79.618305 168.92773 75.484375 C 168.35915 63.797414 169.24954 51.945127 171.60742 40.484375 C 173.83214 29.670791 177.55335 19.101458 182.32227 9.1445312 C 185.65354 2.189233 194.6875 -10.408203 194.6875 -10.408203 L 191.38477 -10.408203 z M 161.22266 23.195312 C 161.26765 25.203032 161.32986 28.519207 161.24609 30.857422 C 161.0821 35.435208 160.81776 40.023633 160.17188 44.558594 C 158.82929 53.985249 157.10591 63.409097 154.36328 72.527344 C 151.90941 80.685582 148.73381 88.660479 144.89453 96.265625 C 141.4232 103.14191 137.39288 109.78529 132.70898 115.90039 C 125.96388 124.70653 118.42569 133.01516 109.98047 140.20703 C 104.26571 145.07366 98.089682 149.586 91.292969 152.77148 C 84.304078 156.04703 76.776165 159.67786 69.068359 159.27344 C 63.866036 159.00048 58.22159 157.09547 54.611328 153.33984 C 52.655052 151.3048 51.903177 148.20078 51.707031 145.38477 C 51.568606 143.39751 52.030755 141.45358 52.605469 139.51758 C 58.586945 139.20958 65.670364 137.51028 71.910156 134.52539 C 72.13526 134.41771 72.36382 134.29911 72.589844 134.18945 C 74.142042 136.33934 76.361902 138.11802 78.824219 138.54688 C 86.803191 139.93654 94.843165 134.24826 101.33984 129.41211 C 108.31944 124.21647 113.62967 116.75876 117.67773 109.05664 C 122.30363 100.25509 124.92796 90.339244 126.25 80.484375 C 127.04959 74.524022 126.54215 68.417331 125.80273 62.449219 C 125.36958 58.953113 123.89263 53.117886 123.10938 50.152344 C 131.6929 46.887584 137.53157 43.028457 144.11719 38.369141 C 150.48789 33.861873 156.17188 28.894998 161.22266 23.195312 z M 20.757812 36.289062 C 22.998299 38.227437 28.039479 42.239247 34.732422 45.394531 C 43.881562 49.707751 61.077535 56.309377 75.267578 57.449219 C 76.227574 57.526332 77.202003 57.579342 78.185547 57.619141 C 81.096853 60.512782 88.744501 68.329225 91.417969 73.285156 C 94.71578 79.398463 95.960743 83.736647 95.964844 91.341797 C 95.969001 98.946947 94.003119 110.41182 89.398438 117.54102 C 88.813694 118.44634 88.181141 119.30869 87.511719 120.13281 C 88.334741 118.1888 89.201399 115.18184 89.017578 111.19922 C 88.681756 103.92362 86.826244 88.951289 79.732422 79.859375 C 72.6386 70.767461 58.951897 62.969196 48.302734 61.287109 C 37.65357 59.605023 20.757812 68.119141 20.757812 68.119141 L 20.757812 36.289062 z M 120.42188 51.126953 C 121.15762 54.020449 122.53829 59.682322 122.94727 63.074219 C 123.63865 68.808412 124.15587 74.669465 123.39258 80.394531 C 122.14447 89.755979 119.6264 99.158853 115.26758 107.53711 C 111.43402 114.90573 106.40273 122.02325 99.822266 127.0918 C 93.954999 131.61102 86.746715 137.21984 79.449219 135.95703 C 77.727768 135.65914 76.18882 134.44324 75.066406 132.94727 C 81.12023 129.80575 87.196773 125.7561 91.355469 119.37305 C 96.239696 111.8764 98.421514 99.307436 98.425781 91.214844 C 98.429939 83.122252 96.744074 78.224289 93.691406 72.273438 C 91.169855 67.357941 84.033855 60.14994 81.519531 57.681641 C 94.231175 57.69168 108.15455 55.010025 118.03516 51.912109 C 118.85649 51.654593 119.64702 51.392585 120.42188 51.126953 z M 40.761719 79.851562 C 42.158867 79.858289 43.550099 79.978552 44.912109 80.230469 C 49.210131 81.025428 53.524703 82.698163 56.964844 85.394531 C 62.333678 89.602597 66.717871 95.414464 69.285156 101.73438 C 71.520569 107.23731 71.234892 113.4792 71.517578 119.41211 C 71.712148 123.49546 69.533447 127.91474 71.144531 131.67188 C 71.197794 131.79609 71.26807 131.919 71.326172 132.04297 C 71.10121 132.15212 70.871805 132.27283 70.648438 132.37891 C 64.97702 135.07219 58.836507 136.4405 53.451172 136.73242 C 53.693999 135.91459 53.922147 135.09583 54.087891 134.27148 C 55.037527 129.54838 57.13259 124.86943 56.757812 120.06641 C 56.445057 116.0582 55.18007 111.88052 52.716797 108.70312 C 50.757025 106.1752 47.817849 104.27995 44.761719 103.33594 C 41.242861 102.24899 37.207476 102.11082 33.712891 103.27344 C 30.206344 104.44004 27.303517 107.17932 24.875 109.96484 C 23.024256 112.08766 21.728902 114.69692 20.740234 117.33398 C 19.626145 120.30559 19.155786 123.49957 18.792969 126.65234 C 18.760412 126.93525 18.773438 127.50781 18.773438 127.50781 L 18.771484 195.04102 A 10.47874 10.415038 0 0 0 16.964844 195.30273 L 16.962891 102.0918 C 16.962891 102.0918 18.956214 93.083283 21.339844 89.234375 C 22.679594 87.071045 24.617081 85.255592 26.712891 83.8125 C 28.851977 82.339611 31.309686 81.24811 33.839844 80.662109 C 36.088833 80.141231 38.433138 79.840351 40.761719 79.851562 z M 39.259766 104.15234 C 40.962218 104.13127 42.668338 104.36365 44.257812 104.85156 C 47.003654 105.69444 49.599709 107.48134 51.328125 109.77539 C 53.562774 112.74134 54.640638 116.61786 54.927734 120.32031 C 55.28456 124.92199 53.481535 129.44125 52.527344 133.95703 C 52.326485 134.90761 52.037545 135.84722 51.722656 136.7832 C 51.360388 136.78716 50.987908 136.80316 50.634766 136.79688 C 44.654846 136.6904 40.385956 134.70983 35.734375 132.94727 C 31.082796 131.1847 22.855469 126.38086 22.855469 126.38086 L 22.855469 195.61133 A 10.47874 10.415038 0 0 0 20.455078 195.07617 L 20.455078 127.20117 C 20.455078 127.20117 21.026315 120.76991 22.128906 117.77539 C 23.028075 115.33335 24.334481 112.97437 26.074219 111.03906 C 28.347859 108.50984 31.057659 106.06242 34.28125 104.97852 C 35.857222 104.44861 37.557313 104.17341 39.259766 104.15234 z M 19.378906 198.04102 A 7.3867403 7.3867403 0 0 1 26.765625 205.42773 A 7.3867403 7.3867403 0 0 1 19.378906 212.81445 A 7.3867403 7.3867403 0 0 1 11.992188 205.42773 A 7.3867403 7.3867403 0 0 1 19.378906 198.04102 z M 17.136719 215.58594 A 10.47874 10.415038 0 0 0 19.380859 215.8418 A 10.47874 10.415038 0 0 0 20.583984 215.76562 L 20.583984 587.86914 C 20.022715 586.56596 19.485901 585.28094 19.003906 584.04297 C 18.339108 582.33548 17.724924 580.63886 17.136719 578.95117 L 17.136719 215.58594 z M 54.599609 629.2793 C 57.7069 629.29501 60.5855 629.48168 63.072266 629.81445 C 73.019328 631.14556 82.832031 637.89648 82.832031 637.89648 C 82.832031 637.89648 65.298299 646.99906 56.820312 655.63672 C 48.342326 664.27438 38.93467 678.53486 34.28125 690.04492 C 32.56201 694.2974 31.237733 698.15608 30.255859 701.96875 C 27.663889 698.95766 22.56469 692.70132 20.771484 688.08789 C 18.330238 681.80722 17.612422 673.72145 18.5625 666.49609 C 19.512578 659.27073 22.52409 652.34387 26.390625 645.91406 C 29.282844 641.10448 36.321436 633.81562 39.6875 630.44531 C 44.818056 629.6146 49.965167 629.25586 54.599609 629.2793 z M 28.701172 733.5625 C 29.790461 743.55639 32.322999 754.30716 37.25 764.22852 C 44.008205 777.83731 55.446999 792.22303 68.753906 801.41602 C 82.060814 810.609 98.402657 816.41845 114.27344 817.57812 C 130.14422 818.7378 149.10425 813.40275 160.55078 808.42383 C 168.25584 805.07234 172.82744 801.7134 176.97461 797.96875 C 178.79088 800.24028 184.10382 806.98405 187.95117 812.96875 C 192.61153 820.21811 198.63004 829.73341 203.41992 840.74805 C 208.20981 851.76269 213.17724 866.97204 215.79297 879.07031 C 216.75718 883.53001 217.51666 887.64805 218.09961 891.67773 L 212.01953 891.69531 C 211.85425 890.52281 211.69286 889.35251 211.5 888.16211 C 209.32851 874.75866 204.79646 859.17931 199.82031 847.125 C 194.84416 835.07069 182.58594 816 182.58594 816 C 182.58594 816 165.87761 826.58365 155.87891 829.95117 C 145.8802 833.31869 135.40935 835.73496 123.17578 835.50781 C 110.94221 835.28074 95.12813 831.95013 83.779297 827.30078 C 72.430464 822.65143 63.800398 816.58081 55.748047 809.24414 C 47.695695 801.90747 40.918336 792.8184 35.986328 784.05273 C 31.05432 775.28707 27.962172 766.09589 26.011719 757.53711 C 24.175518 749.47969 23.90557 735.55468 23.878906 733.89844 C 26.312594 733.71045 27.485132 733.63303 28.701172 733.5625 z M 199.12695 771.30078 C 199.12695 771.30078 205.29428 776.47707 212.38477 785.31641 C 219.47525 794.15574 232.19301 811.01696 239.6582 825.6582 C 247.12339 840.29945 253.19511 858.46437 256.70508 872.56836 C 258.45757 879.61031 259.60595 885.67329 260.38867 891.55469 L 220.10938 891.67188 C 219.54602 887.5757 218.79501 883.38336 217.81445 878.81836 C 215.18727 866.58743 210.06894 851.06736 205.1875 839.92773 C 200.30606 828.78811 194.18638 819.27248 189.4668 811.95898 C 185.53125 805.86045 180.10703 798.96163 178.33203 796.73438 C 179.86871 795.29097 181.38758 793.78674 183.02734 792.19727 C 189.50166 785.92151 199.12695 771.30078 199.12695 771.30078 z M 182.20703 818.20898 C 182.20703 818.20898 193.5179 836.66981 198.24219 848.38672 C 202.96647 860.10363 207.47017 875.22041 209.66992 888.41406 C 209.85407 889.51851 210.01064 890.60877 210.17383 891.70117 L 137.5 891.91211 C 137.5 891.91211 100.27141 892.43635 86.072266 895.12695 C 82.026447 895.8936 78.093617 896.82814 74.357422 897.83789 C 72.698089 897.80302 71.08794 897.75911 69.636719 897.69531 C 64.638826 897.47572 57.814385 896.18007 53.033203 893.01562 C 48.252021 889.85122 44.753143 884.49839 42.300781 879.63867 C 37.396058 869.91924 40.617718 856.63467 44.003906 847.125 C 47.390095 837.61533 56.583761 829.09547 60.546875 824.52148 C 63.048596 821.63415 64.664424 820.17334 65.583984 819.41797 C 70.791108 823.09041 76.478923 826.34529 83.085938 829.06836 C 94.664263 833.84035 110.81912 837.20127 123.23828 837.40234 C 135.65744 837.60338 146.34901 834.99728 156.25781 831.65625 C 166.16661 828.31522 182.20703 818.20898 182.20703 818.20898 z M 320.44727 892.7168 C 320.44727 892.7168 325.24141 894.71201 331.77344 897.19531 L 263.83203 897.375 C 263.7039 895.91484 263.55689 894.45204 263.39258 892.99414 L 320.44727 892.7168 z M 260.5625 893.00781 C 260.74282 894.4667 260.90379 895.92609 261.04492 897.38281 L 220.77734 897.49023 C 220.63959 896.0637 220.48013 894.63332 220.29883 893.20312 L 260.5625 893.00781 z M 218.30273 893.21289 C 218.49437 894.64206 218.6644 896.07043 218.8125 897.49609 L 212.74609 897.51172 C 212.59739 896.09677 212.43296 894.6768 212.24414 893.24219 L 218.30273 893.21289 z M 210.41211 893.25195 C 210.61368 894.68218 210.79206 896.1003 210.95703 897.51562 L 95.585938 897.82227 C 95.585938 897.82227 89.184189 897.92391 82.068359 897.9082 C 83.506469 897.58998 84.954777 897.27963 86.427734 897.00195 C 100.21757 894.40232 137.52734 893.60352 137.52734 893.60352 L 210.41211 893.25195 z M 342.17188 899.49023 C 345.35128 899.49846 349.63802 899.599 355.13477 899.94922 C 367.87029 900.76065 394.61231 903.36247 411.98438 906.28125 C 420.98902 907.79417 428.87503 909.32861 436.71094 911.11523 C 430.71807 911.663 419.28449 912.52135 409.82227 912.0918 C 396.40063 911.4825 372.96446 908.07689 358.125 904.41211 C 353.26007 903.21066 347.60526 901.38701 342.17188 899.49023 z "
       transform="matrix(0.26458333,0,0,0.26458333,0,14.5)"
       id="path4550" />
  </g>
</svg>
