<?xml version="1.0" encoding="UTF-8" standalone="no"?>
<!-- Created with Inkscape (http://www.inkscape.org/) -->

<svg
   xmlns:dc="http://purl.org/dc/elements/1.1/"
   xmlns:cc="http://creativecommons.org/ns#"
   xmlns:rdf="http://www.w3.org/1999/02/22-rdf-syntax-ns#"
   xmlns:svg="http://www.w3.org/2000/svg"
   xmlns="http://www.w3.org/2000/svg"
   xmlns:sodipodi="http://sodipodi.sourceforge.net/DTD/sodipodi-0.dtd"
   xmlns:inkscape="http://www.inkscape.org/namespaces/inkscape"
   width="210mm"
   height="282.5mm"
   viewBox="0 0 210 282.5"
   version="1.1"
   id="svg8"
   inkscape:version="0.92.0 r"
   sodipodi:docname="full-page-decoration-raw.svg">
  <defs
     id="defs2" />
  <sodipodi:namedview
     id="base"
     pagecolor="#ffffff"
     bordercolor="#666666"
     borderopacity="1.0"
     inkscape:pageopacity="0.0"
     inkscape:pageshadow="2"
     inkscape:zoom="0.49497475"
     inkscape:cx="346.25041"
     inkscape:cy="492.04126"
     inkscape:document-units="mm"
     inkscape:current-layer="layer1"
     showgrid="false"
     inkscape:window-width="1918"
     inkscape:window-height="1078"
     inkscape:window-x="2048"
     inkscape:window-y="0"
     inkscape:window-maximized="1" />
  <metadata
     id="metadata5">
    <rdf:RDF>
      <cc:Work
         rdf:about="">
        <dc:format>image/svg+xml</dc:format>
        <dc:type
           rdf:resource="http://purl.org/dc/dcmitype/StillImage" />
        <dc:title></dc:title>
      </cc:Work>
    </rdf:RDF>
  </metadata>
  <g
     inkscape:label="Layer 1"
     inkscape:groupmode="layer"
     id="layer1"
     transform="translate(0,-14.5)">
    <path
       style="opacity:1;fill:#ff0404;fill-opacity:0.47165533;fill-rule:nonzero;stroke:none;stroke-width:3.77952766;stroke-linecap:butt;stroke-linejoin:miter;stroke-miterlimit:4;stroke-dasharray:none;stroke-dashoffset:0;stroke-opacity:0.49890591;paint-order:markers stroke fill"
       d="M 19.380859,249.81445 A 10.47874,10.415038 0 0 0 8.9023438,260.23047 10.47874,10.415038 0 0 0 19.380859,270.64453 10.47874,10.415038 0 0 0 29.859375,260.23047 10.47874,10.415038 0 0 0 19.380859,249.81445 Z m -0.002,3.0293 a 7.3867404,7.3867404 0 0 1 7.386719,7.38672 7.3867404,7.3867404 0 0 1 -7.386719,7.38672 7.3867404,7.3867404 0 0 1 -7.386718,-7.38672 7.3867404,7.3867404 0 0 1 7.386718,-7.38672 z"
       transform="scale(0.26458333)"
       id="path4550"
       inkscape:connector-curvature="0" />
    <path
       style="fill:#ff0404;fill-opacity:0.47165533;fill-rule:evenodd;stroke:none;stroke-width:0.26458332px;stroke-linecap:butt;stroke-linejoin:miter;stroke-opacity:1"
       d="M 2.9529389,67.964 H 0 v 0.514 h 2.7462331 z"
       id="path4556"
       inkscape:connector-curvature="0"
       sodipodi:nodetypes="ccccc" />
    <path
       style="fill:#ff0404;fill-opacity:0.47165533;fill-rule:evenodd;stroke:none;stroke-width:0.26458332px;stroke-linecap:butt;stroke-linejoin:miter;stroke-opacity:1"
       d="M 4.534,71.167576 V 168.6271 L 3.839,166.77292 V 70.869836 Z"
       id="path4642"
       inkscape:connector-curvature="0"
       sodipodi:nodetypes="ccccc" />
    <path
       style="fill:#ff0404;fill-opacity:0.47165533;fill-rule:evenodd;stroke:none;stroke-width:0.26458332px;stroke-linecap:butt;stroke-linejoin:miter;stroke-opacity:1"
       d="M 5.446,71.249121 5.872,71.05702 v 100.9746 l -0.426,-0.90951 z"
       id="path4644"
       inkscape:connector-curvature="0"
       sodipodi:nodetypes="ccccc" />
    <path
       style="fill:#ff0404;fill-opacity:0.47165533;fill-rule:evenodd;stroke:none;stroke-width:0.26458332px;stroke-linecap:butt;stroke-linejoin:miter;stroke-opacity:1"
       d="m 52.752323,297.70157 c 0,0 3.59597,-3.50411 5.328687,-5.64605 1.732717,-2.14194 3.404815,-4.38926 4.977894,-7.2163 1.573079,-2.82704 3.18144,-6.52274 4.259607,-9.75532 1.078167,-3.23258 1.794046,-6.18913 2.255088,-9.53817 0.461042,-3.34904 0.590031,-7.07008 0.434311,-10.47364 -0.15572,-3.40356 -0.400836,-6.09802 -1.319643,-9.87227 -0.918807,-3.77425 -2.504436,-8.63438 -4.510172,-12.56167 -2.005736,-3.92729 -5.370437,-8.34879 -7.400026,-10.82441 -2.029589,-2.47562 -4.259606,-4.35984 -4.259606,-4.35984 0,0 -2.844744,4.41379 -4.610402,6.1305 -1.765658,1.71671 -2.864427,2.85326 -5.796407,4.10927 -2.93198,1.25601 -7.770534,2.59753 -11.80997,2.3052 -4.039436,-0.29233 -8.17152,-1.70897 -11.576113,-4.05916 -3.404593,-2.35019 -6.34692,-6.09639 -8.084903,-9.605 -1.7379831,-3.50861 -2.3287059,-7.41603 -2.3887214,-10.67407 -0.060016,-3.25804 0.3875304,-5.52979 1.5702084,-8.46911 1.182678,-2.93932 3.427,-6.36501 5.712886,-8.68626 2.285886,-2.32125 7.567069,-5.14493 7.567069,-5.14493 0,0 -3.283749,-2.43445 -6.180608,-2.90656 -2.896859,-0.47211 -7.4396688,0.0719 -10.6956737,1.41819 -3.2560049,1.34633 -6.80028782,5.56402 -6.80028782,5.56402 l -0.050113,0.81852 c 0,0 3.93242202,-4.54372 7.16491722,-5.87484 3.2324952,-1.33112 7.5154693,-1.5932 10.1472963,-1.24101 2.631827,0.35219 5.22846,2.13815 5.22846,2.13815 0,0 -4.639056,2.40854 -6.88219,4.69392 -2.243134,2.28538 -4.732234,6.0585 -5.9634515,9.10387 -1.2312174,3.04537 -1.7047017,5.32794 -1.6537302,8.66956 0.050972,3.34162 0.6507263,7.35739 2.4388344,10.95805 1.7881083,3.60066 4.8146823,7.40655 8.3354683,9.83886 3.520786,2.43231 7.84469,3.96948 12.043834,4.27631 4.199144,0.30683 9.215722,-1.10479 12.244284,-2.42213 3.028562,-1.31734 4.233751,-2.63256 5.946746,-4.29302 1.712995,-1.66046 4.259609,-5.52913 4.259609,-5.52913 0,0 1.631889,1.36962 3.507912,3.70836 1.876023,2.33874 5.241112,6.80025 7.216277,10.67408 1.975165,3.87383 3.581495,8.67964 4.510175,12.41132 0.92868,3.73168 1.215839,6.42524 1.369756,9.77205 0.153917,3.34681 -0.01476,6.93274 -0.484426,10.22306 -0.469661,3.29032 -1.19619,6.23945 -2.271792,9.43795 -1.075602,3.1985 -2.683038,6.85378 -4.2262,9.6551 -1.543162,2.80132 -3.107534,4.94751 -4.844259,7.16619 -1.736725,2.21868 -5.529138,6.13047 -5.529138,6.13047 z"
       id="path4646"
       inkscape:connector-curvature="0"
       sodipodi:nodetypes="czzzzzzzzczzzzzzzzczzcczzczzzzzzzzczzzzzzzzcc" />
    <path
       style="fill:#ff0404;fill-opacity:0.47165533;fill-rule:evenodd;stroke:none;stroke-width:0.26458332px;stroke-linecap:butt;stroke-linejoin:miter;stroke-opacity:1"
       d="m 8.4189899,200.69944 c 0,0 -2.2773471,-2.48091 -2.9232602,-4.14267 -0.6459131,-1.66176 -0.8360269,-3.80118 -0.5846522,-5.71289 0.2513747,-1.91171 1.048318,-3.7444 2.0713388,-5.44562 1.0230208,-1.70122 4.0090427,-4.57699 4.0090427,-4.57699 0,0 -1.6529811,-2.89914 -2.6559906,-4.86096 -1.0030095,-1.96182 -2.4362633,-4.69469 -3.3074604,-6.9323 -0.8711971,-2.23761 -1.4788735,-4.42381 -1.9711127,-6.43118 -0.4922392,-2.00737 -1.0356695,-5.57925 -1.0356695,-5.57925 l -3.674956,-1.06907 0.016705,0.90203 2.9900778,0.80181 c 0,0 0.4682921,3.12399 0.968852,5.11153 0.5005599,1.98754 1.2321087,4.5154 2.1381562,6.76526 0.9060475,2.24986 2.3362499,4.81431 3.30791,6.68383 0.9716601,1.86952 2.4810872,4.5518 2.4810872,4.5518 -1.2032822,1.54444 -2.7156091,2.80093 -3.68425,4.39963 -0.9555923,1.63789 -1.8447396,3.63192 -2.1047474,5.61266 -0.2600078,1.98074 -0.1143763,4.21019 0.5846519,5.96346 0.6990282,1.75327 3.240643,4.37653 3.240643,4.37653 z"
       id="path4648"
       inkscape:connector-curvature="0"
       sodipodi:nodetypes="czzzczzzcccczzzcczzcc" />
    <path
       style="fill:#ff0404;fill-opacity:0.47165533;fill-rule:evenodd;stroke:none;stroke-width:0.26458332px;stroke-linecap:butt;stroke-linejoin:miter;stroke-opacity:1"
       d="m 8.1382997,208.14016 c 0,0 -2.2245677,0.15427 -3.7748694,0.33991 -1.5503017,0.18559 -5.6391,0.80582 -5.6391,0.80582 l -0.047247,0.43704 c 0,0 4.1462851,-0.66934 5.7050781,-0.86226 1.558793,-0.19292 3.7679501,-0.3071 3.7679501,-0.3071 0.025576,-0.13823 -0.0019,-0.28456 -0.011812,-0.41341 z"
       id="path4650"
       inkscape:connector-curvature="0"
       sodipodi:nodetypes="czcczcc" />
    <path
       style="fill:#ff0404;fill-opacity:0.47165533;fill-rule:evenodd;stroke:none;stroke-width:0.26458332px;stroke-linecap:butt;stroke-linejoin:miter;stroke-opacity:1"
       d="m 211.46031,289.23247 c 0,0 -3.20706,1.99289 -5.69619,2.80633 -2.48913,0.81344 -5.3514,1.60484 -9.22079,1.62033 -3.86939,0.0155 -9.11643,-0.67205 -13.66416,-2.28851 -4.54773,-1.61646 -9.32078,-4.82977 -13.12961,-7.46683 -3.80883,-2.63706 -6.20571,-5.41026 -9.75534,-8.11832 -3.54963,-2.70806 -7.49907,-5.64923 -11.55941,-8.0682 -4.06034,-2.41897 -8.28434,-4.50093 -12.74541,-6.39776 -4.46107,-1.89683 -9.5361,-3.65476 -13.98154,-4.92778 -4.44544,-1.27302 -7.99246,-2.03635 -12.61178,-2.80633 -4.61932,-0.76998 -11.697209,-1.49248 -15.084024,-1.68714 -3.386815,-0.19466 -5.176312,-0.0178 -5.176312,-0.0178 l -63.545365,0.16815 c 0,0 -4.278998,0.0803 -6.865486,-0.0334 -1.322359,-0.0581 -3.128044,-0.40101 -4.393065,-1.23827 -1.265021,-0.83725 -2.191063,-2.25337 -2.839917,-3.53917 -1.297708,-2.5716 -0.444911,-6.08664 0.451018,-8.60274 0.895929,-2.5161 3.327964,-4.76995 4.376538,-5.98015 1.048574,-1.2102 1.570209,-1.5368 1.570209,-1.5368 l -0.684878,-0.51784 c 0,0 -0.417997,0.29614 -1.453279,1.55351 -1.035282,1.25737 -3.536226,3.55445 -4.476764,6.19731 -0.940538,2.64286 -1.929823,6.3842 -0.534539,9.17068 0.697642,1.39324 1.787092,2.9318 3.170912,3.84541 1.383819,0.91361 3.46085,1.28856 4.830469,1.29953 2.644744,0.0212 6.857134,0.0167 6.857134,0.0167 l 63.540544,-0.1555 c 0,0 1.753635,-0.13109 5.123243,0.0836 3.369608,0.21469 10.445322,0.90331 15.041682,1.67557 4.59636,0.77226 8.09018,1.55857 12.51515,2.82471 4.42497,1.26614 9.52338,2.9857 13.96149,4.86644 4.43811,1.88074 8.60555,3.95686 12.62677,6.35473 4.02122,2.39787 7.92641,5.30335 11.44559,7.98473 3.51918,2.68138 5.84203,5.3848 9.68564,8.04381 3.84361,2.65901 8.8015,5.99451 13.42996,7.64223 4.62846,1.64772 9.88828,2.34576 13.83157,2.3269 3.94329,-0.0189 6.97839,-0.89555 9.48484,-1.68907 2.50645,-0.79352 5.56334,-2.59861 5.56334,-2.59861 z"
       id="path4652"
       inkscape:connector-curvature="0"
       sodipodi:nodetypes="czzzzzzzzzzccszszzcczzszscczzzzzzzzzzcc" />
    <path
       style="fill:#ff0404;fill-opacity:0.47165533;fill-rule:evenodd;stroke:none;stroke-width:0.26458332px;stroke-linecap:butt;stroke-linejoin:miter;stroke-opacity:1"
       d="m 31.938708,297.81852 c 0,0 3.901779,-2.70697 5.913337,-4.34314 2.011558,-1.63617 3.927043,-3.02196 6.113791,-5.49574 2.186748,-2.47378 4.988023,-6.5078 6.631625,-9.50476 1.643602,-2.99696 2.488708,-5.10901 3.424391,-8.23523 0.935683,-3.12622 1.752675,-7.00144 1.987817,-10.47364 0.235142,-3.4722 0.04748,-6.71553 -0.534538,-10.20635 -0.582017,-3.49082 -1.773519,-7.49046 -3.023486,-10.59056 -1.249967,-3.1001 -4.242903,-7.98468 -4.242903,-7.98468 0,0 -4.243785,2.67405 -6.865488,3.55803 -2.621703,0.88398 -5.450469,1.57328 -8.736372,1.52009 -3.285903,-0.0532 -7.560532,-0.94238 -10.623964,-2.20497 -3.063432,-1.26259 -5.393794,-2.94471 -7.567068,-4.92778 -2.173274,-1.98307 -4.009452,-4.40616 -5.3453905,-6.76526 -1.3359387,-2.3591 -2.1800687,-4.84475 -2.7061038,-7.14946 -0.5260351,-2.30471 -0.567948,-6.5147 -0.567948,-6.5147 l 0.5178348,0.0167 c 0,0 0.05189,4.14996 0.5679477,6.41447 0.5160573,2.26451 1.3343597,4.69657 2.6392868,7.01582 1.304927,2.31925 3.097942,4.72388 5.22846,6.66504 2.130518,1.94116 4.414017,3.5473 7.416729,4.77744 3.002712,1.23014 7.186714,2.11148 10.423513,2.17156 3.236799,0.0601 6.007358,-0.57899 8.652848,-1.46998 2.64549,-0.89099 7.065939,-3.69166 7.065939,-3.69166 0,0 3.243681,5.04587 4.560287,8.23524 1.316606,3.18937 2.515763,7.3115 3.090304,10.85783 0.574541,3.54633 0.680755,6.76601 0.451017,10.25646 -0.229738,3.49045 -0.94119,7.38082 -1.870888,10.55716 -0.929698,3.17634 -1.841769,5.40617 -3.507912,8.43569 -1.666143,3.02952 -4.463594,7.00352 -6.665034,9.50478 -2.20144,2.50126 -4.21306,4.04844 -6.197311,5.64608 -1.984251,1.59764 -5.629365,3.99232 -5.629365,3.99232 z"
       id="path4668"
       inkscape:connector-curvature="0"
       sodipodi:nodetypes="czzzzzzzczzzzzzcczzzzzzczzzzzzzcc" />
    <path
       style="fill:#ff0404;fill-opacity:0.47165533;fill-rule:evenodd;stroke:none;stroke-width:0.26458332px;stroke-linecap:butt;stroke-linejoin:miter;stroke-opacity:1"
       d="m 35.44662,297.80179 c 0,0 4.593699,-3.23332 6.79867,-5.27857 2.204971,-2.04525 4.360174,-4.29869 6.330947,-6.9991 1.970773,-2.70041 3.891074,-5.94195 5.328685,-9.18739 1.437611,-3.24544 2.543633,-6.76648 3.240643,-10.17296 0.69701,-3.40648 0.998046,-6.94292 0.968851,-10.13953 -0.0292,-3.19661 -0.326885,-5.73583 -1.018963,-8.93683 -0.692078,-3.201 -2.006728,-7.22525 -3.274052,-10.13954 -1.267324,-2.91429 -2.859512,-5.43185 -4.092565,-7.34991 -1.233053,-1.91806 -3.123713,-4.2429 -3.123713,-4.2429 l 0.367496,-0.31738 c 0,0 1.908398,2.35798 3.157122,4.29301 1.248724,1.93503 2.867834,4.45267 4.159382,7.40003 1.291548,2.94736 2.645758,7.05378 3.340867,10.28988 0.695109,3.2361 0.956367,5.76653 0.985558,8.98693 0.02919,3.2204 -0.236183,6.79575 -0.935443,10.23976 -0.69926,3.44401 -1.829772,7.01618 -3.290758,10.28989 -1.460986,3.27371 -3.410376,6.50295 -5.412208,9.2375 -2.001832,2.73455 -4.286319,5.1369 -6.447877,7.14947 -2.161558,2.01257 -6.381059,4.97787 -6.381059,4.97787 z"
       id="path4670"
       inkscape:connector-curvature="0"
       sodipodi:nodetypes="czzzzzzzzcczzzzzzzzcc" />
    <path
       style="fill:#ff0404;fill-opacity:0.47165533;fill-rule:evenodd;stroke:none;stroke-width:0.26458332px;stroke-linecap:butt;stroke-linejoin:miter;stroke-opacity:1"
       d="m -0.27167039,288.49553 c 0,0 1.53579939,-4.675 2.61039799,-7.72489 1.0745986,-3.04989 2.3366008,-6.68791 3.874256,-10.5597 1.5376552,-3.87179 4.1804844,-10.27061 5.4097844,-12.63858 1.032714,-2.07692 1.535729,-2.44166 2.669456,-3.02381 1.608605,-0.82282 4.926774,-2.02889 8.575335,-2.71671 3.648561,-0.68782 13.520061,-0.89913 13.520061,-0.89913 l 48.397164,-0.2348 c 0,0 5.858586,2.45259 9.803756,3.42541 3.94517,0.97282 10.09477,1.8881 13.84338,2.05525 3.74861,0.16715 8.8636,-0.50445 8.8636,-0.50445 l -0.64831,-0.21666 c 0,0 -4.66415,0.52796 -8.21529,0.36675 -3.55114,-0.16121 -9.75174,-1.06198 -13.678015,-2.03162 -3.926275,-0.96964 -9.851004,-3.44903 -9.851004,-3.44903 l -48.522693,0.14174 c 0,0 -9.850286,0.13856 -13.607143,0.85045 -3.756857,0.71189 -7.232672,1.93575 -8.858817,2.85844 -2.034372,1.37501 -2.009817,2.0165 -2.622209,3.18918 -1.242604,2.3805 -3.9802748,8.82842 -5.5300727,12.69394 -1.5497979,3.86552 -2.8375606,7.53673 -3.8388207,10.45931 -1.00126006,2.92258 -2.24423359,7.04571 -2.24423359,7.04571 z"
       id="path4672"
       inkscape:connector-curvature="0"
       sodipodi:nodetypes="czzcczcczzcczzcczcczzcc" />
    <path
       style="fill:#ff0404;fill-opacity:0.47165533;fill-rule:evenodd;stroke:none;stroke-width:0.26458332px;stroke-linecap:butt;stroke-linejoin:miter;stroke-opacity:1"
       d="m -1.110305,245.24088 c 0,0 4.5485777,-0.65398 6.4255952,-0.8032 1.8770175,-0.14921 4.8191968,-0.16536 4.8191968,-0.16536 l 0.03543,0.66146 c 0,0 -2.8804697,-0.0397 -4.7719497,0.0945 -1.89148,0.13426 -6.5555244,0.8032 -6.5555244,0.8032 z"
       id="path4674"
       inkscape:connector-curvature="0"
       sodipodi:nodetypes="czcczcc" />
    <path
       style="fill:#ff0404;fill-opacity:0.47165533;fill-rule:evenodd;stroke:none;stroke-width:0.26458332px;stroke-linecap:butt;stroke-linejoin:miter;stroke-opacity:1"
       d="m -1.0189651,248.62421 c 0.0668174,-0.0167 3.1505607,0.21871 4.443356,0.43431 1.2927953,0.2156 2.1503785,0.35633 3.3074602,0.78511 1.1570817,0.42878 2.7028314,1.127 3.5580259,1.83748 0.855194,0.71048 1.309508,1.33326 1.637025,2.10475 0.327517,0.77149 0.310463,2.52759 0.310463,2.52759 l -0.414742,0.38386 c 0,0 0.01131,-1.85256 -0.313329,-2.66089 -0.324636,-0.80833 -0.664012,-1.35296 -1.469982,-2.05463 -0.8059705,-0.70167 -2.3067205,-1.37898 -3.4410956,-1.80407 -1.1343751,-0.42509 -2.0176481,-0.5656 -3.290756,-0.78511 -1.2731079,-0.21951 -4.29588278,-0.45591 -4.29588278,-0.45591 z"
       id="path4676"
       inkscape:connector-curvature="0"
       sodipodi:nodetypes="czzzzcczzzzcc" />
    <path
       style="fill:#ff0404;fill-opacity:0.47165533;fill-rule:evenodd;stroke:none;stroke-width:0.26458332px;stroke-linecap:butt;stroke-linejoin:miter;stroke-opacity:1"
       d="M 4.855,33.562407 V 13.106759 c 0,0 1.2807231,1.979523 2.6336527,3.316789 1.3529296,1.337266 3.4207843,3.248979 5.6733743,4.398133 2.25259,1.149154 5.008867,1.993487 7.67391,2.240074 2.665043,0.246587 5.552411,-0.06322 8.024506,-0.800994 2.472094,-0.737772 4.587652,-1.825587 6.574824,-3.427615 1.987172,-1.602028 5.723605,-5.971016 5.723605,-5.971016 h 0.732329 c 0,0 -3.937154,4.878586 -6.030712,6.608851 -2.093558,1.730265 -4.257431,2.822349 -6.818943,3.592282 -2.561512,0.769932 -5.52232,1.109561 -8.300103,0.825315 C 17.96366,23.604332 15.038399,22.59912 12.712121,21.377914 10.385843,20.156708 8.0649351,17.9748 6.9216888,16.848771 5.7784425,15.722742 5.492,15.077008 5.492,15.077008 v 17.445964 c 0,0 4.4707286,-2.252252 7.28832,-1.8072 2.817591,0.445052 6.438569,2.508122 8.315476,4.913691 1.876907,2.405569 2.367992,6.366853 2.456845,8.291854 0.08885,1.925001 -0.750712,3.025487 -0.750712,3.025487 l -1.014132,0.96926 c 0,0 1.057822,-1.822868 1.008892,-3.900254 -0.04893,-2.077386 -0.535743,-5.603209 -2.291481,-7.890253 C 18.74947,33.838513 15.602962,31.814271 12.733073,31.424477 9.863184,31.034683 4.855,33.562407 4.855,33.562407 Z"
       id="path4678"
       inkscape:connector-curvature="0"
       sodipodi:nodetypes="cczzzzzcczzzzzcczzzcczzzc" />
    <path
       style="fill:#ff0404;fill-opacity:0.47165533;fill-rule:evenodd;stroke:none;stroke-width:0.26458332px;stroke-linecap:butt;stroke-linejoin:miter;stroke-opacity:1"
       d="m 5.1499256,22.89639 c 0,0 2.0228974,1.884502 4.4648437,3.047433 2.4419467,1.162931 6.7372787,2.816847 10.3707217,3.094682 3.633443,0.277835 7.975249,-0.56363 10.937686,-1.511906 2.962437,-0.948276 4.734775,-2.100593 6.75225,-3.534442 2.017475,-1.43385 3.802407,-3.082041 5.272117,-4.946399 1.46971,-1.864358 3.689813,-6.061457 3.689813,-6.061457 l 0.850445,0.04725 c 0,0 -2.405449,4.595386 -3.94967,6.557551 -1.544221,1.962165 -3.341102,3.601289 -5.406872,5.06282 -2.06577,1.46153 -3.849782,2.626725 -6.900979,3.583382 -3.051197,0.956657 -7.561212,1.766242 -11.315661,1.464659 C 16.160171,29.39838 11.610256,27.651993 9.1895461,26.510787 6.7688365,25.369581 5.1499256,23.794084 5.1499256,23.794084 Z"
       id="path4680"
       inkscape:connector-curvature="0"
       sodipodi:nodetypes="czzzzzcczzzzzcc" />
    <path
       style="fill:#ff0404;fill-opacity:0.47165533;fill-rule:evenodd;stroke:none;stroke-width:0.26458332px;stroke-linecap:butt;stroke-linejoin:miter;stroke-opacity:1"
       d="M 6.7151469,66.914344 6.715,49.140922 c 0,0 1.3564096,0.826015 2.4556855,1.23612 1.0992755,0.410105 2.4692305,1.037692 4.1593815,1.052375 1.690151,0.01468 3.835857,-0.446438 5.696182,-1.33635 1.860325,-0.889912 3.852654,-2.025554 5.144939,-4.009041 1.292285,-1.983487 1.869757,-5.308975 1.870886,-7.45014 0.0011,-2.141165 -0.445141,-3.436807 -1.252826,-5.011303 -0.807685,-1.574496 -3.524616,-4.15938 -3.524616,-4.15938 l -0.942854,-0.07863 c 0,0 2.993568,2.887802 3.866114,4.505281 0.872546,1.617479 1.201628,2.765245 1.202713,4.777441 0.0011,2.012196 -0.51893,5.046039 -1.737252,6.932306 -1.218322,1.886267 -3.192312,3.085501 -4.961191,3.925519 -1.768879,0.840018 -3.71309,1.197475 -5.295277,1.169305 C 11.814698,50.666253 10.68539,50.141804 9.4546593,49.675459 8.223929,49.209114 6.047,47.938208 6.047,47.938208 l -2.71e-5,18.658752 z"
       id="path4682"
       inkscape:connector-curvature="0"
       sodipodi:nodetypes="cczzzzzzcczzzzzzccc" />
    <path
       style="fill:#ff0404;fill-opacity:0.47165533;fill-rule:evenodd;stroke:none;stroke-width:0.26458332px;stroke-linecap:butt;stroke-linejoin:miter;stroke-opacity:1"
       d="M 4.4884673,66.529015 4.488,41.511717 c 0,0 0.5273524,-2.383428 1.1580211,-3.401785 0.3544755,-0.572381 0.8671907,-1.052827 1.421707,-1.434645 0.5659667,-0.389702 1.2161469,-0.678167 1.8855846,-0.833213 0.9520721,-0.220505 1.9686063,-0.292346 2.9295803,-0.114605 1.137185,0.210333 2.278705,0.653237 3.188909,1.366651 1.420504,1.113384 2.580783,2.650961 3.260044,4.323104 0.591453,1.455985 0.515794,3.107705 0.590588,4.677455 0.05148,1.080387 -0.524816,2.249267 -0.09855,3.243341 0.358233,0.835418 1.136118,1.663043 2.031622,1.81901 2.111103,0.367683 4.238265,-1.136954 5.957178,-2.416518 1.846686,-1.374679 3.25205,-3.348308 4.323101,-5.38616 1.223936,-2.328743 1.918068,-4.95209 2.267857,-7.559524 0.211557,-1.57701 0.07752,-3.192885 -0.118118,-4.771948 -0.157653,-1.272455 -0.846146,-3.752332 -0.846146,-3.752332 l -0.704406,0.265344 c 0,0 0.645455,2.415381 0.794601,3.652352 0.18293,1.517172 0.320072,3.068202 0.118118,4.582959 -0.330229,2.476883 -0.996468,4.964801 -2.14974,7.181548 -1.014295,1.949614 -2.345787,3.832495 -4.086867,5.173549 -1.552381,1.19571 -3.459418,2.679765 -5.390214,2.345647 -0.680689,-0.117791 -1.259902,-0.77421 -1.511905,-1.41741 -0.372338,-0.950338 0.252583,-2.034308 0.216666,-3.054352 -0.0571,-1.621544 -0.0599,-3.321927 -0.685082,-4.819197 C 18.278367,39.355606 17.01068,37.671405 15.449775,36.456286 14.463707,35.688661 13.228703,35.215945 11.999776,34.989412 10.946166,34.795196 9.8298417,34.860204 8.7879481,35.109745 8.0246495,35.292561 7.2913193,35.644189 6.6503124,36.097131 6.0194687,36.542892 5.4352082,37.09684 5.0318097,37.755578 4.3633548,38.847146 3.803,41.393599 3.803,41.393599 l 3.857e-4,25.442523 z"
       id="path4684"
       inkscape:connector-curvature="0"
       sodipodi:nodetypes="ccaaaaaaaaaaaaaccaaaaaaaaaaaaaccc" />
    <path
       style="fill:#ff0404;fill-opacity:0.47165533;fill-rule:evenodd;stroke:none;stroke-width:0.26458332px;stroke-linecap:butt;stroke-linejoin:miter;stroke-opacity:1"
       d="M 5.4122079,66.413212 5.412,48.155365 c 0,0 0.1513916,-1.70154 0.4431189,-2.49384 0.237905,-0.646124 0.5834702,-1.270424 1.0437758,-1.782473 0.6015672,-0.66919 1.3186563,-1.316834 2.1715648,-1.603618 0.8339517,-0.28041 1.7981895,-0.291597 2.6392865,-0.03341 0.726504,0.223011 1.413577,0.695974 1.870887,1.302941 0.591251,0.784742 0.876186,1.810017 0.952147,2.789623 0.09441,1.217528 -0.382302,2.413338 -0.634765,3.608139 -0.211069,0.9989 -0.783915,1.953591 -0.734991,2.973374 0.04101,0.854878 0.264097,1.800069 0.851922,2.422131 1.044035,1.104844 2.691789,1.668757 4.209495,1.753955 2.113004,0.118616 4.181844,-0.870271 6.097086,-1.770661 1.857447,-0.87322 3.536909,-2.121562 5.094824,-3.457797 2.227932,-1.910913 4.226293,-4.106859 5.99686,-6.447877 1.261529,-1.667976 2.323344,-3.490938 3.257349,-5.362096 1.012231,-2.027873 1.873292,-4.142699 2.522355,-6.314242 0.727396,-2.433619 1.16301,-4.952068 1.520095,-7.466843 0.17357,-1.222367 0.257698,-2.45778 0.30068,-3.69166 0.03334,-0.9572 -0.03341,-2.873148 -0.03341,-2.873148 l -0.334086,0.417609 c 0,0 0.04699,1.693231 0.01669,2.53906 -0.04339,1.211206 -0.113084,2.424968 -0.283975,3.624843 -0.355226,2.494136 -0.811144,4.987489 -1.536798,7.400025 -0.649254,2.158534 -1.489842,4.26864 -2.505651,6.280835 -0.918456,1.81935 -1.98466,3.577096 -3.22394,5.195051 -1.784642,2.329959 -3.7791,4.528324 -6.013564,6.431172 -1.51203,1.28763 -3.14619,2.481341 -4.944487,3.324166 -1.849144,0.866656 -3.840572,1.827549 -5.879929,1.720546 -1.376448,-0.07222 -2.87008,-0.576532 -3.825295,-1.570207 -0.517598,-0.538438 -0.716503,-1.359679 -0.7684,-2.104749 -0.06965,-0.999904 0.432089,-1.957653 0.629665,-2.940314 0.251258,-1.249655 0.805842,-2.487326 0.706682,-3.758127 C 14.934442,45.207269 14.599861,44.101676 13.94812,43.260991 13.429597,42.592145 12.651974,42.09089 11.843373,41.84112 10.912342,41.553532 9.8447215,41.516815 8.9201124,41.824425 7.9923387,42.133088 7.2240491,42.858084 6.581504,43.595086 6.0918279,44.156747 5.7492003,44.846879 5.4876153,45.544603 5.1928457,46.33084 5.0682149,47.176173 4.9722196,48.010345 4.9636056,48.085198 4.967,48.236326 4.967,48.236326 l -1.647e-4,18.145052 z"
       id="path4686"
       inkscape:connector-curvature="0"
       sodipodi:nodetypes="ccaaaaaaaaaaaaaaaaaccaaaaaaaaaaaaaaaaaaccc" />
    <path
       style="fill:#ff0404;fill-opacity:0.47165533;fill-rule:evenodd;stroke:none;stroke-width:0.26458332px;stroke-linecap:butt;stroke-linejoin:miter;stroke-opacity:1"
       d="m 35.66951,44.666182 c 0,0 1.654974,1.882202 2.633555,2.653964 1.018249,0.803046 3.324165,2.021227 3.324165,2.021227 0,0 0.224771,-3.074269 0.651469,-4.543581 0.578968,-1.993644 1.484735,-3.901074 2.555764,-5.679477 1.066489,-1.770865 2.41382,-3.368603 3.80859,-4.894374 1.387522,-1.517842 2.896524,-2.934666 4.510174,-4.209497 2.905853,-2.29571 6.029359,-4.326588 9.254207,-6.147198 3.142827,-1.774305 6.43934,-3.282861 9.788747,-4.627103 3.137472,-1.259185 6.371127,-2.278239 9.621703,-3.207235 3.210696,-0.917599 9.742398,-2.332528 9.742398,-2.332528 h 2.355313 c 0,0 -7.893437,1.843386 -11.78033,2.983998 -3.250692,0.953919 -6.492823,1.966056 -9.638406,3.223938 -3.339801,1.335547 -6.639263,2.809602 -9.772041,4.576991 -3.185043,1.796875 -6.24537,3.837338 -9.120574,6.097086 -1.60496,1.261408 -3.125155,2.643085 -4.510172,4.142677 -1.318749,1.427841 -2.585146,2.930805 -3.591436,4.593696 -1.063114,1.756792 -1.977109,3.63763 -2.53906,5.612659 -0.507107,1.782273 -0.718288,5.512436 -0.718288,5.512436 0,0 -3.074265,-1.507258 -4.426649,-2.539062 -0.964116,-0.735574 -2.579391,-2.565549 -2.579391,-2.565549 z"
       id="path4690"
       inkscape:connector-curvature="0"
       sodipodi:nodetypes="cacaaaaaaaccaaaaaaacacc" />
    <path
       style="fill:#ff0404;fill-opacity:0.47165533;fill-rule:evenodd;stroke:none;stroke-width:0.26458332px;stroke-linecap:butt;stroke-linejoin:miter;stroke-opacity:1"
       d="m 45.459743,38.828668 c 0,0 -0.692411,-2.884083 -0.764059,-4.356757 -0.150439,-3.092175 0.08485,-6.228093 0.708705,-9.260417 0.588623,-2.861094 1.573046,-5.657415 2.834822,-8.291852 0.881399,-1.840256 3.271855,-5.173549 3.271855,-5.173549 h -0.87407 c 0,0 -2.234347,3.30572 -3.082868,5.102678 -1.244197,2.634901 -2.306895,5.39291 -2.905691,8.244606 -0.668579,3.18403 -0.964174,6.487692 -0.73233,9.732888 0.115657,1.618883 1.051841,4.754056 1.051841,4.754056 z"
       id="path4692"
       inkscape:connector-curvature="0"
       sodipodi:nodetypes="caaaccaaacc" />
    <path
       style="fill:#ff0404;fill-opacity:0.47165533;fill-rule:evenodd;stroke:none;stroke-width:0.26458332px;stroke-linecap:butt;stroke-linejoin:miter;stroke-opacity:1"
       d="m 49.327932,33.906557 c 0,0 -0.207578,-3.205578 -0.03341,-4.794146 0.255261,-2.328207 0.795556,-4.638438 1.570209,-6.848782 0.721549,-2.058821 1.759617,-4.001188 2.839739,-5.896634 0.851,-1.493372 2.856441,-4.293017 2.856441,-4.293017 l -0.7684,-0.0167 c 0,0 -2.008638,2.643682 -2.839738,4.07586 -1.09509,1.887092 -2.095176,3.85067 -2.80633,5.913338 -0.786826,2.282151 -1.349725,4.663638 -1.586912,7.06594 -0.181689,1.840203 0.133635,5.545841 0.133635,5.545841 z"
       id="path4694"
       inkscape:connector-curvature="0"
       sodipodi:nodetypes="caaaccaaacc" />
    <path
       style="fill:#ff0404;fill-opacity:0.47165533;fill-rule:evenodd;stroke:none;stroke-width:0.26458332px;stroke-linecap:butt;stroke-linejoin:miter;stroke-opacity:1"
       d="m 56.271205,28.176244 c 0,0 1.384824,-2.841246 2.29423,-4.12525 1.73265,-2.446355 3.688291,-4.779833 5.963452,-6.731851 2.477947,-2.126002 8.233909,-5.305062 8.233909,-5.305062 l -0.584652,-0.03341 c 0,0 -5.596953,3.095892 -8.000049,5.171427 -2.27543,1.96527 -4.203545,4.332246 -5.946746,6.781965 -1.060039,1.489673 -2.711346,4.768005 -2.711346,4.768005 z"
       id="path4696"
       inkscape:connector-curvature="0"
       sodipodi:nodetypes="caaccaacc" />
  </g>
</svg>
