<?xml version="1.0" encoding="UTF-8" standalone="no"?>
<!-- Created with Inkscape (http://www.inkscape.org/) -->

<svg
   xmlns:dc="http://purl.org/dc/elements/1.1/"
   xmlns:cc="http://creativecommons.org/ns#"
   xmlns:rdf="http://www.w3.org/1999/02/22-rdf-syntax-ns#"
   xmlns:svg="http://www.w3.org/2000/svg"
   xmlns="http://www.w3.org/2000/svg"
   xmlns:sodipodi="http://sodipodi.sourceforge.net/DTD/sodipodi-0.dtd"
   xmlns:inkscape="http://www.inkscape.org/namespaces/inkscape"
   width="337.50406mm"
   height="169.67195mm"
   viewBox="0 0 337.50406 169.67195"
   version="1.1"
   id="svg4784"
   inkscape:version="0.92.0 r"
   sodipodi:docname="header-chapter.svg">
  <defs
     id="defs4778" />
  <sodipodi:namedview
     id="base"
     pagecolor="#ffffff"
     bordercolor="#666666"
     borderopacity="1.0"
     inkscape:pageopacity="0.0"
     inkscape:pageshadow="2"
     inkscape:zoom="0.7"
     inkscape:cx="759.22475"
     inkscape:cy="422.53825"
     inkscape:document-units="mm"
     inkscape:current-layer="layer1"
     showgrid="false"
     fit-margin-top="0"
     fit-margin-left="0"
     fit-margin-right="0"
     fit-margin-bottom="0"
     inkscape:window-width="1918"
     inkscape:window-height="1078"
     inkscape:window-x="2048"
     inkscape:window-y="0"
     inkscape:window-maximized="1" />
  <metadata
     id="metadata4781">
    <rdf:RDF>
      <cc:Work
         rdf:about="">
        <dc:format>image/svg+xml</dc:format>
        <dc:type
           rdf:resource="http://purl.org/dc/dcmitype/StillImage" />
        <dc:title></dc:title>
      </cc:Work>
    </rdf:RDF>
  </metadata>
  <g
     inkscape:label="Layer 1"
     inkscape:groupmode="layer"
     id="layer1"
     transform="translate(549.55813,177.45461)">
    <g
       id="g5400"
       transform="translate(-5.5751488,-6.7090774)">
      <path
         style="fill:#e0c98d;stroke-width:1;fill-opacity:0.86433262"
         d="m -543.88832,-1.3756358 c -0.18262,-0.2954902 -0.11486,-1.5162533 0.32514,-5.8574023 0.13057,-1.288274 0.0867,-1.573643 -0.16275,-1.058333 -0.23094,0.4771 -0.27667,-0.49384 -0.14123,-2.9986109 0.11016,-2.037292 0.27867,-3.831079 0.37445,-3.986192 0.0958,-0.155116 0.38709,-1.663241 0.64735,-3.351389 0.26026,-1.688151 0.80321,-5.212489 1.20656,-7.831864 0.40334,-2.619375 0.814,-4.981254 0.91256,-5.248624 0.0986,-0.267367 0.42717,-1.696117 0.73023,-3.175 0.30305,-1.47888 1.26162,-5.600361 2.13016,-9.158845 1.66998,-6.842143 1.82684,-8.374345 0.68103,-6.652489 -1.15399,1.734149 -3.10039,8.235346 -5.9883,20.001625 -0.56281,2.293055 -0.56281,2.293055 -0.38931,-0.973762 0.0954,-1.796747 0.26731,-3.939872 0.38197,-4.7625 0.15493,-1.111532 0.11193,-1.359771 -0.1674,-0.966516 -0.63787,0.898017 -0.47014,-1.059981 0.2748,-3.207967 0.82775,-2.386757 1.65524,-4.242689 4.46808,-10.0212 4.20417,-8.636762 6.68148,-15.639055 7.23887,-20.461111 0.43913,-3.799028 0.41736,-12.034417 -0.0415,-15.69387 -0.77234,-6.159552 -4.02862,-13.778064 -9.31804,-21.800844 -1.99882,-3.03174 -3.00888,-4.90005 -3.00888,-5.56553 0,-0.92996 0.10846,-0.85131 1.51327,1.0973 2.20303,3.05583 5.87611,9.2831 8.10787,13.745922 1.33621,2.67202 2.29825,5.26153 3.07996,8.290281 1.02208,3.960075 1.15159,5.036355 1.28349,10.666131 0.0807,3.443887 0.25707,6.301387 0.39196,6.35 0.13489,0.04861 0.84453,-1.578487 1.57698,-3.615779 0.73245,-2.037291 2.12942,-5.722838 3.10436,-8.190106 1.77264,-4.48594 1.77264,-4.48594 0.19899,-7.469607 -1.99345,-3.77963 -2.5076,-4.54149 -8.21782,-12.177122 -6.82846,-9.13092 -11.03906,-15.38003 -11.03906,-16.38349 0,-0.93134 0.38932,-0.49787 2.98031,3.31827 2.91106,4.28755 5.59624,7.974 8.52866,11.70887 1.68413,2.14499 7.38264,10.673822 8.60385,12.877212 0.45705,0.82462 1.00321,1.49931 1.21371,1.49931 0.2105,0 1.08197,-1.54782 1.9366,-3.43959 2.00644,-4.441362 3.78967,-8.346062 4.66777,-10.220892 0.73626,-1.57201 0.63679,-2.20936 -0.34686,-2.22248 -1.30173,-0.0174 -9.78652,-3.18659 -11.71032,-4.37403 -4.18086,-2.20055 -8.21475,-4.7556 -11.7853,-7.82358 -3.56021,-3.106 -4.17259,-3.93689 -4.02681,-5.46359 0.11478,-1.20193 0.11478,-1.20193 3.13745,1.70527 3.31138,3.18489 6.58781,5.72684 11.79399,9.15015 1.61093,1.05925 5.2897,2.5804 6.24051,2.5804 0.8723,0 0.65616,-1.07425 -0.0558,-1.75796 -1.06362,-1.25292 -4.02331,-6.36154 -4.83425,-11.06361 -1.23495,-7.16059 0.58997,-16.61704 4.06132,-21.04509 0.53237,-0.6791 1.72662,-2.39768 2.65388,-3.81906 0.9472,-1.45194 2.20217,-2.88892 2.86407,-3.27946 0.64797,-0.38231 1.2747,-0.94677 1.39273,-1.25436 0.18583,-0.48427 -0.0346,-0.5271 -1.64419,-0.31943 -1.80453,0.23281 -2.87377,0.50358 -7.67963,1.94478 -4.42038,1.3256 -8.0588,2.81576 -12.48746,5.11439 -4.24124,2.20136 -5.5042,2.66975 -5.5042,2.04133 0,-0.48805 3.73742,-2.75849 6.23042,-3.78489 1.32695,-0.54633 3.47678,-1.4458 4.7774,-1.99884 3.51088,-1.35929 7.2951,-2.69395 10.61696,-3.79032 0.73703,-0.24047 2.37918,-0.58437 3.6492,-0.76423 1.94419,-0.22572 2.83969,-0.41584 4.50383,-0.82365 0.89408,-0.21852 3.17513,-0.77453 3.8123,-1.04266 1.53777,-0.64711 4.31284,-1.52325 6.27378,-1.98072 1.08356,-0.25279 40.78256,-0.43536 125.05972,-0.57513 67.90973,-0.11263 126.48848,-0.21325 130.175,-0.22361 3.68653,-0.0104 10.69615,0.0248 15.57693,0.0781 4.88078,0.0533 9.0484,-0.0108 9.26137,-0.1424 0.24464,-0.1512 0.27247,-0.45876 0.0756,-0.83527 -0.17141,-0.32777 -0.38049,-2.46126 -0.46463,-4.74109 -0.15298,-4.14514 -0.40103,-6.14723 0.54742,-6.14723 0.94845,0 0.85396,2.2147 1.006,6.18684 0.14457,3.77699 0.25585,4.34522 1.57913,6.99347 1.38619,2.77414 3.61652,4.54798 6.16313,6.319 1.31354,0.91349 3.71221,1.79023 6.73633,2.07046 2.26329,0.20973 1.93705,-0.0183 1.91193,1.03829 -0.025,1.051 0.32129,0.9072 -1.91193,0.90892 -0.92164,-0.002 -2.67739,-0.31856 -3.90167,-0.70234 -3.71789,-0.8214 -6.21999,-4.11318 -9.01296,-5.76846 -1.60211,-0.93549 5.72207,-0.86749 -101.12079,-0.9389 -37.4847,-0.025 -65.9722,0.35587 -67.90973,0.90805 -0.97014,0.27648 -3.82764,1.12168 -6.35,1.87821 -2.52236,0.75653 -4.90361,1.46023 -5.29166,1.56377 -0.38806,0.10355 -4.51556,1.32588 -9.17223,2.71631 -4.65666,1.39042 -9.65729,2.83253 -11.1125,3.20468 -3.24794,0.83061 -5.15585,1.36775 -9.70139,2.73124 -1.94027,0.58201 -4.08059,1.17102 -4.75625,1.3089 -0.67566,0.13789 -2.10441,0.53188 -3.175,0.87553 -8.38043,2.69006 -8.0557,2.63913 -9.65542,1.51428 -4.57259,-3.21523 -7.22795,-5.01685 -8.1661,-5.54058 -0.58209,-0.32495 -1.61396,-0.925 -2.29306,-1.33343 -2.13879,-1.28636 -7.34113,-3.82382 -7.83965,-3.82382 -0.2628,0 -1.03839,-0.28579 -1.72352,-0.63508 -1.70198,-0.86772 -4.81254,-1.95199 -8.60489,-2.99947 -2.94643,-0.81384 -4.0333,-1.07246 -8.29027,-1.97272 -0.87313,-0.18465 -4.36563,-0.34729 -7.76111,-0.36143 -5.50992,-0.0229 -6.52539,0.0685 -9.44581,0.85043 -1.79971,0.48187 -3.78409,1.13307 -4.40973,1.44709 -6.76468,3.39542 -12.91173,10.8332 -14.24833,17.24013 -0.30022,1.43909 -0.52448,4.48409 -0.53357,7.24494 -0.0147,4.47026 0.0501,4.93568 1.05611,7.58472 0.58949,1.55223 1.59926,3.74724 2.24393,4.87781 0.64466,1.13058 1.37199,2.42519 1.61628,2.87692 0.2443,0.45173 1.55398,1.80526 2.91042,3.00783 1.35644,1.20257 2.46625,2.31871 2.46625,2.4803 0,0.1616 -1.01593,2.40744 -2.25763,4.99075 -1.24169,2.58332 -2.57002,5.411332 -2.95184,6.284452 -0.38182,0.87313 -0.941,2.14313 -1.24263,2.82222 -0.30163,0.6791 -0.88552,2.10785 -1.29754,3.175002 -0.41201,1.067153 -0.96843,2.416528 -1.23648,2.998611 -0.55942,1.214815 -1.89485,4.734193 -3.34656,8.819445 -0.55159,1.552222 -1.43423,3.933472 -1.96143,5.291666 -1.32565,3.415217 -6.06623,18.679492 -7.06669,22.754167 -0.45258,1.843264 -1.36458,5.415139 -2.02666,7.9375 -0.66209,2.522361 -1.47818,6.014861 -1.81353,7.761111 -0.83153,4.329988 -1.57885,7.868783 -1.97422,9.348611 -0.29135,1.090472 -1.44583,7.424942 -2.47537,13.581945 -0.95421,5.7065649 -1.47306,9.6498969 -1.42733,10.8479159 0.05,1.3098149 -0.095,1.61843912 -0.4731,1.0067083 z m 26.9649,-109.5794142 c 0,-0.1 -0.97751,-1.40964 -2.17225,-2.91041 -3.30855,-4.15606 -4.9425,-8.29851 -5.52908,-14.01758 -0.5321,-5.18794 0.26638,-9.46481 2.70253,-14.47546 3.05281,-6.27898 6.3175,-9.8914 11.24619,-12.444 3.62648,-1.87819 3.98708,-2.34849 1.54298,-2.01234 -2.31173,0.31794 -4.78345,1.79873 -8.27064,4.95487 -2.74922,2.48823 -3.68063,3.67252 -5.72218,7.27578 -1.62144,2.86178 -2.5027,5.41569 -3.16603,9.17521 -0.95535,5.41461 -0.28944,10.00302 2.39777,16.52177 1.66343,4.03524 4.74062,8.11389 6.12161,8.11389 0.46701,0 0.8491,-0.0818 0.8491,-0.18173 z m 73.56395,-30.33821 c 3.12543,-0.98528 4.52464,-1.38513 6.86938,-1.96304 0.87313,-0.21521 3.01625,-0.83788 4.7625,-1.38372 7.19004,-2.24744 15.05179,-4.54079 29.80973,-8.69577 9.51718,-2.67949 9.37091,-2.63023 8.78455,-2.95838 -0.78599,-0.43986 -85.83585,-0.25302 -85.98778,0.18891 -0.0667,0.19403 0.8858,0.69426 2.11667,1.11164 1.23087,0.41738 2.95232,1.00084 3.82544,1.29658 4.03093,1.36535 6.05027,2.16792 8.99584,3.57533 1.74625,0.83436 3.53219,1.62603 3.96875,1.75926 0.43656,0.13323 0.79375,0.39422 0.79375,0.57997 0,0.18575 0.35719,0.48806 0.79375,0.6718 0.43656,0.18373 1.5875,0.80997 2.55764,1.39164 0.97014,0.58167 2.31951,1.373 2.99861,1.75851 0.6791,0.38551 2.02847,1.33458 2.99861,2.10903 2.12321,1.69496 2.90146,1.75968 6.71256,0.55824 z m 124.62675,-17.27587 c 52.44579,-0.0893 95.50932,-0.25708 95.69673,-0.3729 0.18741,-0.11583 0.24044,-0.3729 0.11784,-0.57127 -0.24073,-0.38951 -277.40418,-0.13619 -279.36499,0.25533 -1.71702,0.34284 -1.99749,0.48168 -1.75751,0.86998 0.15706,0.25412 14.11769,0.30819 45.08972,0.17463 24.67423,-0.1064 87.77242,-0.26649 140.21821,-0.35577 z"
         id="path5402"
         inkscape:connector-curvature="0"
         sodipodi:nodetypes="cccccsccccsccccsscccsccsccsccsssscsscccccccscscccccscscccccccscsccssscssscccccsccccccsccsccccccsccccsscccccccscscccccscssccssscsscccsccsccsscssccsccccss" />
    </g>
  </g>
</svg>
