<?xml version="1.0" encoding="UTF-8" standalone="no"?>
<!-- Created with Inkscape (http://www.inkscape.org/) -->

<svg
   xmlns:dc="http://purl.org/dc/elements/1.1/"
   xmlns:cc="http://creativecommons.org/ns#"
   xmlns:rdf="http://www.w3.org/1999/02/22-rdf-syntax-ns#"
   xmlns:svg="http://www.w3.org/2000/svg"
   xmlns="http://www.w3.org/2000/svg"
   xmlns:sodipodi="http://sodipodi.sourceforge.net/DTD/sodipodi-0.dtd"
   xmlns:inkscape="http://www.inkscape.org/namespaces/inkscape"
   width="600mm"
   height="330mm"
   viewBox="0 -40 600 330"
   version="1.1"
   id="svg8"
   inkscape:version="0.92.0 r"
   sodipodi:docname="header-part.svg">
  <defs
     id="defs2" />
  <sodipodi:namedview
     id="base"
     pagecolor="#ffffff"
     bordercolor="#666666"
     borderopacity="1.0"
     inkscape:pageopacity="0.0"
     inkscape:pageshadow="2"
     inkscape:zoom="0.24748737"
     inkscape:cx="1539.0192"
     inkscape:cy="871.12438"
     inkscape:document-units="mm"
     inkscape:current-layer="g5934"
     showgrid="false"
     fit-margin-top="0"
     fit-margin-left="0"
     fit-margin-right="0"
     fit-margin-bottom="0"
     inkscape:object-nodes="true"
     inkscape:snap-nodes="true"
     inkscape:snap-others="true"
     inkscape:object-paths="false"
     inkscape:window-width="1918"
     inkscape:window-height="1078"
     inkscape:window-x="2048"
     inkscape:window-y="0"
     inkscape:window-maximized="1"
     inkscape:snap-smooth-nodes="true"
     viewbox-y="-40"
     inkscape:pagecheckerboard="true" />
  <metadata
     id="metadata5">
    <rdf:RDF>
      <cc:Work
         rdf:about="">
        <dc:format>image/svg+xml</dc:format>
        <dc:type
           rdf:resource="http://purl.org/dc/dcmitype/StillImage" />
        <dc:title></dc:title>
      </cc:Work>
    </rdf:RDF>
  </metadata>
  <g
     inkscape:label="Layer 1"
     inkscape:groupmode="layer"
     id="layer1"
     transform="translate(420.30954,-45.619056)">
    <g
       id="g5934">
      <path
         sodipodi:nodetypes="cscccccccccsccscsssccsssccscscccsscssscccccscccccccccccccscssssccccccsccsccsssccscssccsssssccccssscsccsccccscccccccccc"
         inkscape:connector-curvature="0"
         id="path4552"
         transform="matrix(0.26458333,0,0,0.26458333,-420.30954,-5.3809438)"
         d="m 2266.9766,-469.54688 c -167.5306,0.18895 -329.3383,60.97249 -455.5583,171.13182 -126.2199,110.15933 -208.3317,262.258155 -231.18,428.22365 -2.6565,10.55586 -7.8636,26.93654 -17.7969,46.97852 l -1483.156244,-0.002 0.002,990.06449 c -15.278415,9.6439 -24.553747,26.4402 -24.578125,44.5078 2.7e-5,29.1147 23.602123,52.7168 52.716799,52.7168 28.86997,-0.01 52.36155,-23.2394 52.69531,-52.1075 l 161.35938,-8e-4 c 57.55537,-3.6522 68.62801,-16.3959 94.90625,-28.2668 28.95681,-18.1208 47.34128,-49.8245 45.75781,-83.3633 -3.1669,-67.0776 -62.02967,-89.6233 -92.42773,-89.3984 -18.13645,0.1341 -55.28522,9.2283 -86.61524,16.5078 1.01265,-28.45233 7.51702,-59.76447 22.79102,-93.01361 12.93823,-28.16453 28.27895,-50.23275 44.66211,-67.56445 15.79024,-5.79541 43.9674,-13.38499 85.07422,-14.27149 44.07571,-0.95051 121.11328,22.96624 167.56836,71.47266 65.24224,68.12319 64.23243,125.51139 66.02929,153.53899 4.42968,69.0937 -40.81836,137.129 -40.81836,137.129 l 214.0586,-10e-5 c 0,0 -114.38563,-106.7971 -126.19922,-340.56633 -7.32612,-144.97062 40.37404,-273.796 170.44531,-401.75976 83.18438,-81.8366 198.99806,-140.19609 346.29686,-148.27735 191.9508,-10.531 349.3833,116.51928 387.164,149.81641 103.0757,267.5575 360.0775,444.18216 646.8028,444.51562 184.0617,4e-5 360.5847,-73.11819 490.736,-203.26953 130.1514,-130.15134 203.2697,-306.67447 203.2698,-490.73633 -10e-5,-184.061863 -73.1184,-360.58499 -203.2698,-490.73633 -130.1513,-130.15134 -306.6743,-203.26957 -490.736,-203.26953 z m 0,17.28711 c 179.4808,1.3e-4 351.6105,71.29882 478.5225,198.21115 126.9119,126.91233 198.2102,299.042293 198.2099,478.52323 -2e-4,179.4806 -71.2987,351.61006 -198.2106,478.52197 -126.91,126.9119 -299.0394,198.21032 -478.5199,198.21045 -179.4805,-1.3e-4 -351.6099,-71.29855 -478.5218,-198.21045 -126.9119,-126.91191 -198.2104,-299.04137 -198.2106,-478.52197 -3e-4,-179.480937 71.298,-351.6109 198.2099,-478.52323 126.912,-126.91233 299.0417,-198.21102 478.5225,-198.21115 z m -692.418,631.80665 c -1.0146,14.94961 -1.5448,29.92816 -1.5898,44.9121 0.2391,76.05237 12.9772,151.5483 37.7051,223.46875 -21.8774,-18.11455 -102.0656,-80.38448 -210.0938,-115.65039 24.8588,-5.61586 72.6321,-20.55794 108.3457,-57.27734 35.4727,-36.47168 56.3517,-75.49881 65.6328,-95.45312 z m -18.1035,8.66601 c -3.2221,5.84405 -6.8397,11.93122 -10.8789,18.2168 l -1437.36326,-0.002 V 1158.668 c -0.26295,-0.011 -0.52598,-0.02 -0.78906,-0.027 -5.30352,0 -10.576428,0.8037 -15.640624,2.3789 V 188.21484 Z M 122.48047,219.98828 H 1536.4023 c -10.1801,14.26386 -22.5492,29.314 -37.5957,44.68555 -13.3899,13.67928 -27.1626,24.29789 -40.7714,32.52344 -29.5665,-13.49647 -149.5492,-60.28043 -327.17,-24.68165 -178.33916,35.74278 -281.53217,142.39636 -305.92575,170.25586 -56.13269,2.40043 -133.39991,10.79221 -203.1914,36.06836 -58.8703,21.32085 -143.70945,53.85033 -216.1543,102.4961 -72.44485,48.64577 -132.13571,114.37165 -168.20703,161.40625 -72.14268,94.06919 -95.50744,174.04229 -81.57031,231.07226 13.93712,57.02995 56.12951,73.59425 79.54882,72.22655 6.6922,-0.3908 18.78554,-2.6807 33.05274,-5.7265 4.95007,58.5452 32.83703,125.3906 45.29687,139.3857 l -164.21875,-10e-4 c -6.76545,-8.9972 -16.23329,-15.5924 -27.01757,-18.8203 z m 1120.69143,51.31641 c 101.1201,-0.4062 175.9531,25.87964 198.375,34.78125 -25.9315,12.35711 -50.3944,16.68449 -69.4727,17.71679 -43.7129,-11.67405 -91.2078,-18.33882 -140.6914,-15.80859 -137.6143,7.0366 -248.58017,54.09344 -339.60155,134.38867 -10.71387,-0.38085 -27.53076,-0.70723 -48.84375,-0.20898 26.73279,-26.93385 135.8622,-128.48795 290.0977,-159.67383 39.0197,-7.88966 76.0667,-11.05845 110.1367,-11.19531 z M 857.23828,450.91406 c 10.32929,0.0326 18.44789,0.28061 24.50391,0.53906 -5.96504,5.51202 -11.84447,11.16601 -17.63672,16.96876 -115.21266,115.42136 -167.85723,257.24617 -160.83789,405.36718 0.16478,3.47717 0.35372,6.92274 0.5625,10.3418 C 681.07694,856.05417 613.41694,785.89163 507.39258,789.11523 423.92734,791.65296 333.16396,824.24338 291.42773,930 c -14.95288,37.88954 -21.51327,71.4847 -22.78515,100.7539 -14.91079,3.3221 -27.18696,5.6958 -33.32031,5.6055 -19.86724,-0.2926 -56.13413,-10.6066 -68.90039,-64.31252 -12.76627,-53.70588 8.91814,-131.11884 79.80273,-223.24415 35.44229,-46.06265 94.73875,-111.23147 166.51172,-159.46289 71.77296,-48.23145 159.5594,-83.85123 210.6582,-101.76562 91.43721,-32.05641 184.56687,-36.81585 233.84375,-36.66016 z M 513.87305,802.94141 c 109.81787,-0.79561 176.57267,83.91356 191.86718,105.61914 17.10297,180.93955 94.75361,274.07045 112.82618,293.51175 H 645.99609 c 11.1831,-15.6377 38.10121,-61.5031 36.61524,-125.4735 -0.93589,-40.2887 -17.09873,-111.51971 -71.88672,-162.4434 -50.83502,-47.24958 -122.26784,-76.30913 -176.35938,-74.94336 -25.22391,0.63688 -47.78841,4.96923 -63.625,8.95312 56.99769,-45.97458 119.64886,-44.4739 137.0918,-45.09375 2.02757,-0.072 4.04194,-0.11442 6.04102,-0.1289 z M 369.7168,1019.7773 c 22.3587,-0.617 80.47566,19.6061 83.33593,80.3067 1.43014,30.3503 -14.22519,59.634 -40.76953,76.3633 -26.54434,16.7292 -53.9296,27.7011 -91.8125,27.3814 l -161.13867,-1.3599 c -0.60935,-3.5679 -1.58455,-7.0636 -2.91015,-10.4317 l 178.40039,-5e-4 c 0,0 -51.19774,-67.5652 -51.84766,-154.9018 33.48524,-7.4784 72.86307,-16.9744 86.74219,-17.3575 z m -262.29297,149.8165 c 23.06539,10e-5 41.76357,18.6982 41.76367,41.7636 -4e-5,23.0654 -18.69825,41.7636 -41.76367,41.7637 -23.065426,-10e-5 -41.76363,-18.6983 -41.763674,-41.7637 9.9e-5,-23.0654 18.698287,-41.7635 41.763674,-41.7636 z"
         style="fill:#e0c98d;fill-opacity:0.8627451;fill-rule:evenodd;stroke:none;stroke-width:0.99999994px;stroke-linecap:butt;stroke-linejoin:miter;stroke-opacity:1" />
    </g>
  </g>
</svg>
